<?xml version="1.0" encoding="UTF-8"?>
<!DOCTYPE svg PUBLIC "-//W3C//DTD SVG 1.1//EN" "http://www.w3.org/Graphics/SVG/1.1/DTD/svg11.dtd">
<!-- Creator: CorelDRAW -->
<svg xmlns="http://www.w3.org/2000/svg" xml:space="preserve" width="300mm" height="250mm" style="shape-rendering:geometricPrecision; text-rendering:geometricPrecision; image-rendering:optimizeQuality; fill-rule:evenodd; clip-rule:evenodd"
viewBox="0 0 300 250">
 <defs>
  <style type="text/css">
   <![CDATA[
    .str1 {stroke:#75352A;stroke-width:0.0762}
    .str3 {stroke:#A82926;stroke-width:0.2}
    .str0 {stroke:#373D40;stroke-width:3}
    .str2 {stroke:#75352A;stroke-width:2.5;stroke-linecap:round;stroke-linejoin:round}
    .fil0 {fill:none}
    .fil3 {fill:none;fill-rule:nonzero}
    .fil1 {fill:#006C3B}
    .fil5 {fill:#67963A}
    .fil2 {fill:#006C3B;fill-rule:nonzero}
    .fil4 {fill:#F3BE00;fill-rule:nonzero}
   ]]>
  </style>
 </defs>
 <g id="Capa_x0020_1">
  <metadata id="CorelCorpID_0Corel-Layer"/>
  <g id="Recuadro_x0020_gris_x0020_topo_x0020_BORDE">
   <path id="_190340520" class="fil0 str0" d="M16.9672 40.7798c44.5333,6.3316 92.2017,12.893 141.148,12.927 48.9462,0.0339 82.5249,-6.5954 127.561,-12.927"/>
   <path id="_190340352" class="fil0 str0" d="M278.68 32.9317c0.3336,30.7641 -4.7521,63.1662 -4.4293,92.9332 0.3228,29.7671 6.0541,56.8994 6.366,85.6695"/>
   <path id="_190340496" class="fil0 str0" d="M24.398 33.6806c-0.6306,30.2803 4.7026,62.5672 4.0924,91.8661 -0.6102,29.299 -7.1638,55.6104 -7.7536,83.9281"/>
   <path id="_190340256" class="fil0 str0" d="M13.5639 201.441c45.2722,-4.1206 93.7315,-8.3789 143.49,-8.022 49.7582,0.357 83.8941,5.2957 129.678,10.1134"/>
  </g>
  <g id="L_x0020_verde_x0020_con_x0020_borde">
   <path id="_190340544" class="fil1 str1" d="M228.491 129.168c2.6364,-7.349 3.5419,-6.4781 6.7653,-14.6669 0.1017,-0.3366 0.2738,-0.8637 0.3179,-1.0024l1.6615 -4.939c0.2823,-0.6992 0.2748,-0.6527 0.566,-1.2682 0.059,-0.1246 0.2343,-0.4597 0.2919,-0.5828 0.0419,-0.0898 0.0939,-0.2063 0.1352,-0.2963 0.8204,-1.9447 1.8147,-4.6538 3.0043,-5.9732l0.3246 1.9293 0.4434 -2.8933c1.0527,0.4614 0.9454,1.6022 2.7725,0.7072 -0.3725,-0.7001 -0.4094,-0.2866 -0.795,-0.9599 -0.3298,-0.5755 -0.2731,-0.8917 -0.6067,-1.4216 1.7008,-1.8308 2.8948,-2.0675 3.4384,-4.4521 0.5422,-2.3776 -0.1318,-4.2471 -1.5149,-4.9266 -2.9676,-1.2353 -2.1873,-1.5057 -3.449,-4.1782 -1.6263,-3.4448 -3.1703,-2.9596 -3.9887,-3.2331 -2.8871,0.2964 -5.9726,2.0856 -7.1123,5.4655 -0.565,1.6752 -0.2544,2.8629 0.3443,4.1872 1.9132,4.1691 6.1177,-1.3485 5.0959,-2.9403 -0.2538,-0.3953 -0.502,-0.5832 -0.9583,-0.3388 -1.3383,1.1606 -0.0753,1.4685 0.7661,0.9779l-0.9315 1.2232c-3.0662,1.2054 -1.0653,-6.3958 2.4933,-4.2382 1.1315,0.686 1.0736,1.5528 1.7162,5.0698l-2.5957 1.0213 1.803 1.0048 -1.7151 4.5296c-0.0346,0.0902 -0.0942,0.2232 -0.1295,0.3096l-0.4074 0.9012c-0.0987,0.2338 -0.3305,0.8343 -0.433,1.0888l-4.3351 11.1086c-1.0787,1.8191 -4.486,7.4704 -5.5148,8.4297 -0.7543,-0.1114 -1.1725,-0.1559 -1.3859,0.7879l3.933 9.5694c-0.486,0.4191 -1.0484,0.9704 -1.7334,1.7047l6.1245 8.2914c4.3807,-5.2424 4.9905,-3.6677 10.14,-9.2874 0.234,-0.2851 0.6133,-0.7223 0.712,-0.8382l3.6033 -4.06c0.5572,-0.5398 0.5313,-0.4956 1.0644,-0.9392 0.108,-0.0899 0.4149,-0.319 0.5208,-0.4082 0.0773,-0.0651 0.175,-0.1513 0.2517,-0.2172 1.5775,-1.3574 3.6271,-3.3666 5.3275,-3.7932l-0.4428 2.4229 1.5722 -2.6119c0.8645,1.3499 0.308,2.4933 2.4763,3.0173 -0.0989,-0.9814 -0.2976,-0.5804 -0.4202,-1.5438 -0.1048,-0.8236 0.0755,-1.1073 -0.051,-1.8866 2.4093,-0.5523 3.6911,0.1334 5.1646,-1.8846 1.4692,-2.012 1.5276,-4.433 0.4087,-6.0901 -1.9082,-2.8264 -1.1076,-2.6404 -0.8053,-5.8063 0.3894,-4.0804 -1.2019,-4.5373 -1.7583,-5.2492 -2.8368,-1.3498 -6.8533,-1.3463 -9.2679,1.1874 -1.3272,1.3925 -1.5447,2.9052 -1.5511,4.7809 -0.0189,5.5282 5.6106,3.5406 5.6237,-0.1717 0.0023,-0.6551 -0.2259,-1.0867 -0.621,-1.3085 -1.3333,-0.7488 -1.0219,0.0037 -1.5682,0.4493 0.5423,0.9552 -0.0584,0.1462 0.8216,0.7192 1.5135,0.986 -0.1953,-0.6041 0.6328,0.3868l-1.6095 2.4268c-3.9792,-0.8567 -1.1796,-8.8333 4.0421,-4.7649 -0.1339,1.0646 0.8434,3.0543 -0.9494,8.461l-3.0044 -0.6494 1.3959 2.5472 -3.4121 2.2245c-0.0684,0.0439 -0.1778,0.1006 -0.2452,0.1408l-0.7443 0.3805c-0.186,0.1055 -0.6428,0.3962 -0.8406,0.5156l-8.4949 5.3365c-1.7931,1.1497 -7.4197,4.6795 -8.8244,4.945 -1.314,0.2484 -2.0826,0.3174 -3.538,1.5725z"/>
   <g>
    <g>
     <path id="_190339992" class="fil2 str1" d="M215.005 88.1989c0.1136,-0.5822 0.2224,-1.1608 0.3265,-1.7439 0.9524,-5.4966 1.3097,-9.8915 0.8737,-15.2814 -0.5746,-5.0136 -1.6781,-8.4479 -4.4124,-12.1302 -0.0796,-0.091 -0.1694,-0.1277 -0.2773,-0.1683 -0.1345,-0.0485 -0.2703,-0.0847 -0.4097,-0.1188 -0.3958,-0.1207 -0.8697,-0.1582 -1.28,-0.239 -1.2163,-0.1788 -2.4173,-0.2899 -3.6593,-0.3477 -0.4381,-0.0118 -0.7814,0.0378 -1.2192,0.2221 -0.3925,0.1811 -0.6641,0.3817 -0.9848,0.7181 -0.6397,0.7217 -0.9602,1.4568 -1.2602,2.3775 -0.5776,1.9639 -0.7241,3.7744 -0.8021,5.7398 -0.007,0.0407 0.0104,0.0898 0.0144,0.1251 0.0616,0.2151 0.125,0.4051 0.2397,0.5838 0.0523,0.0765 0.1002,0.1293 0.1745,0.1787 0.0818,0.0495 0.1528,0.0685 0.2524,0.0612 0.0965,-0.0117 0.1669,-0.0416 0.2548,-0.1021 0.0752,-0.0549 0.1298,-0.1098 0.1917,-0.1842 0.1252,-0.1562 0.2137,-0.3115 0.3074,-0.4907 0.4896,-0.9824 0.8874,-2.1103 1.3519,-3.1345 0.265,-0.5689 0.5203,-1.0683 0.8674,-1.589 0.2918,-0.4199 0.5638,-0.7507 0.975,-1.0076 0.1822,-0.1041 0.3234,-0.1564 0.5163,-0.1839 0.2189,-0.0239 0.3802,0.0012 0.5799,0.0656 0.6064,0.2269 1.0342,0.6809 1.4529,1.1919 -0.0043,-0.0055 -0.0107,-0.0125 -0.0064,-0.0083 1.4168,1.8751 2.3811,2.9522 3.2959,5.3394 1.215,3.6254 1.0846,7.1531 0.6846,11.2412 -1.7571,14.8194 -5.3446,24.428 -11.2648,38.4981 -6.098,13.609 -13.9251,26.5649 -23.4636,37.6982 -5.9382,6.4779 -12.459,10.6406 -19.6642,14.4826 -6.8688,3.4932 -13.5746,6.2527 -20.7473,7.4977 -17.2577,2.6364 -28.599,4.0561 -45.5372,2.2649 -17.8401,-2.3561 -19.9498,-4.465 -34.8104,-12.3549 0.063,0.0343 0.1035,0.0716 0.1462,0.1335 0.0416,0.0656 0.0633,0.1243 0.0758,0.2079 0.01,0.0816 0.0055,0.1507 -0.0145,0.2356 -0.0225,0.0862 -0.0505,0.1497 -0.0996,0.2241 2.0084,-3.0126 3.2959,-5.5869 4.6014,-8.9807 1.3382,-3.6525 2.0824,-6.6675 2.6474,-10.4414 0.9069,-6.3884 1.8138,-12.7768 2.7215,-19.1652 1.9045,-12.4547 4.4593,-24.9562 6.3712,-37.4137 -0.0327,0.1942 -0.0966,0.3325 -0.2262,0.4804 -0.1323,0.1378 -0.2556,0.2056 -0.4216,0.2318 6.1232,-0.6563 10.3915,-0.4868 16.7039,-2.6217 1.3484,-0.5512 2.4347,-1.5823 3.5275,-2.6877 1.1149,-1.1535 2.1376,-2.3492 3.2083,-3.5507 0.1543,-0.1809 0.2364,-0.3514 0.2811,-0.5859 0.0347,-0.2342 0.0115,-0.4087 -0.0794,-0.5988 -0.1017,-0.1857 -0.2198,-0.2869 -0.4092,-0.3475 -0.1916,-0.0487 -0.3513,-0.0283 -0.5497,0.0693 -9.9462,4.9111 -15.7193,4.6128 -25.7634,5.023 0.1743,-0.0035 0.3002,0.0411 0.4311,0.1503 0.1269,0.1183 0.1933,0.2441 0.2292,0.4352 0.0278,0.1944 0.0084,0.3528 -0.0661,0.5499 -0.0821,0.1943 -0.1784,0.3242 -0.3343,0.4505 7.4346,-5.6593 13.7375,-9.9934 22.0495,-13.1761 2.0079,-0.7022 3.8819,-1.1932 5.9142,-1.5444 2.351,-0.3578 4.4668,-0.4958 6.6367,0.2037 -0.3459,-0.3368 -0.4654,-0.312 -0.5341,-0.6749 -0.0157,-0.0504 -0.013,-0.1332 -0.0185,-0.1891 -0.0033,-0.0336 0.0024,-0.0795 0.0035,-0.1152 0.0006,-0.0181 0.0041,-0.0385 0.0061,-0.057 0.002,-0.0192 -0.0026,0.0157 -0.0035,0.0157 0,0 -0.0547,0.2172 -0.0582,0.2306 -0.1053,0.3567 -0.2306,0.668 -0.3864,1.0082 -0.6791,1.4022 -1.4698,2.3802 -2.5329,3.4468 -3.5164,3.0966 -15.1381,8.9427 -19.6734,11.6324 -0.2654,0.1688 -0.4372,0.3634 -0.5888,0.6655 -0.14,0.3099 -0.1826,0.5656 -0.1475,0.882 0.0495,0.3111 0.1549,0.5166 0.3622,0.7031 0.2169,0.1735 0.4246,0.2332 0.7109,0.2065 7.3028,-0.8471 8.3074,-1.0437 15.2988,-4.6972 2.519,-1.3822 4.8434,-3.4217 6.9406,-5.6105 1.3351,-1.4441 2.3665,-2.7395 3.3997,-4.4724 1.0052,-1.7744 1.5971,-3.2421 1.8328,-5.2403 0.0517,-0.7 -0.0514,-1.1902 -0.352,-1.7364 -0.2866,-0.4713 -0.5852,-0.7443 -1.0206,-1.0267 -0.8859,-0.5284 -1.7523,-0.733 -2.7742,-0.8943 -2.1252,-0.283 -4.1643,-0.2314 -6.3566,-0.0368 -5.589,0.5703 -11.1809,2.2612 -16.5607,5.0245 -3.0393,1.675 -5.6165,3.3933 -8.4709,5.5173 -2.9154,2.2049 -5.9359,4.8138 -8.8998,6.7976 -1.4097,0.8588 -3.0877,1.2469 -4.5757,1.4266 -0.8633,0.0813 -1.6086,0.0862 -2.4311,-0.0784 -0.5023,-0.1165 -0.999,-0.2778 -1.3601,-0.6736 -2.5283,-2.9223 -3.6247,-4.5042 -6.8086,-6.793 -1.3232,-0.884 -2.482,-1.2885 -4.092,-1.4293 -1.6177,-0.0789 -2.8916,0.1576 -4.5036,0.8743 -0.4261,0.2121 -0.7156,0.4735 -1.004,0.9063 -0.2711,0.4431 -0.3946,0.8272 -0.4274,1.3306 -0.0126,0.5055 0.0793,0.8661 0.3177,1.2469 0.2554,0.3639 0.5273,0.553 0.9419,0.6557 5.7934,1.5455 6.7005,4.2894 10.769,8.3837 2.1743,1.9808 4.1382,2.8912 7.0772,3.1275 1.4733,0.0622 2.4175,-0.0619 3.8804,-0.3175 -0.2846,0.018 -0.4918,-0.0188 -0.7421,-0.1306 -0.24,-0.1195 -0.4001,-0.2545 -0.5654,-0.4798 -0.1614,-0.2379 -0.2459,-0.4484 -0.3022,-0.7565 -0.0466,-0.3084 -0.0395,-0.5553 0.0265,-0.8796 -0.2105,0.9842 -0.3651,1.9015 -0.5041,2.8885 -2.0035,13.4518 -4.7808,27.0308 -6.6757,40.4608 -0.8025,6.1042 -1.6242,12.2171 -2.4501,18.3218 -0.2609,1.9174 -0.5735,3.7151 -1.0027,5.6236 -0.3892,1.651 -0.8102,3.0471 -1.4614,4.6334 0.1002,-0.2258 0.2025,-0.3858 0.3617,-0.5683 0.163,-0.1774 0.307,-0.2918 0.5056,-0.3992 0.2023,-0.1027 0.3626,-0.1488 0.5725,-0.1661 0.2076,-0.0099 0.3634,0.0164 0.5477,0.0936 -1.8149,-0.7589 -3.5449,-1.375 -5.4571,-1.8797 -2.0623,-0.5159 -3.6584,-0.7101 -5.8479,-0.6557 -2.5732,0.1799 -4.6931,1.1944 -6.9159,3.0712 -1.1246,1.0153 -1.9046,1.9364 -2.6924,3.3041 -0.7819,1.4513 -1.152,2.6325 -1.2762,4.2323 -0.088,1.635 -0.0968,3.0361 0.1438,4.5966 0.2335,1.3295 0.5443,2.2577 1.2486,3.2835 0.7205,0.9628 1.4196,1.4738 2.4508,1.9771 1.1503,0.5157 2.2375,0.7763 3.4851,1.0087 1.7915,0.277 3.1597,0.0702 4.9996,-0.5447 1.6412,-0.5916 3.0464,-1.3242 4.6215,-2.1748 3.2939,-1.8473 5.5437,-3.7232 8.153,-6.7873 -0.1171,0.13 -0.2246,0.1986 -0.3752,0.2404 -0.1506,0.0332 -0.2629,0.0188 -0.3895,-0.0504 3.3479,1.7001 7.0144,2.8317 10.2863,4.6336 2.7557,1.4889 11.3787,4.6525 10.1545,3.979 -3.1261,-1.4644 -6.5814,-3.3339 -9.39,-5.3083 -3.0527,-2.1658 -6.7213,-3.4383 -9.9113,-5.4127 -0.2818,-0.1547 -0.5326,-0.1877 -0.8683,-0.1132 -0.3333,0.092 -0.5748,0.2474 -0.8334,0.5352 -2.4484,2.6371 -4.5157,4.2183 -7.5198,5.7456 -1.4444,0.706 -2.7663,1.34 -4.2597,1.8101 -1.3961,0.4029 -2.4313,0.5391 -3.7699,0.2718 -1.0235,-0.2306 -1.9546,-0.4814 -2.8863,-0.9549 -0.6184,-0.3327 -1.0575,-0.6511 -1.4755,-1.263 -0.395,-0.6324 -0.546,-1.2202 -0.6641,-2.0185 -0.1505,-1.2567 -0.1013,-2.4535 -0.0043,-3.7584 0.0897,-0.8605 0.31,-1.4743 0.7476,-2.2419 0.5151,-0.8474 1.0412,-1.421 1.7597,-2.041 1.4847,-1.1987 2.9859,-1.9208 4.6819,-1.9904 1.8823,-0.0012 3.2237,0.2043 4.9893,0.6888 1.7545,0.5116 3.3509,1.1227 5.0159,1.8587 0.2895,0.1209 0.5323,0.162 0.8582,0.1466 0.3239,-0.0265 0.5753,-0.0985 0.8879,-0.2558 0.3177,-0.1712 0.5429,-0.3475 0.8035,-0.6314 0.2491,-0.2853 0.4102,-0.5381 0.5666,-0.8913 0.8076,-1.8866 1.3354,-3.5372 1.8259,-5.5093 0.4972,-2.0754 0.8623,-4.0288 1.1711,-6.1176 0.8842,-6.1073 1.7622,-12.2144 2.6347,-18.3218 2.0803,-13.4651 4.8162,-26.9975 6.8388,-40.461 0.1183,-0.8397 0.2474,-1.6159 0.426,-2.4531 0.0899,-0.438 0.0998,-0.7761 0.0369,-1.1926 -0.075,-0.4097 -0.1887,-0.697 -0.403,-1.0141 -0.2263,-0.3105 -0.4416,-0.4952 -0.7717,-0.6594 -0.3343,-0.1499 -0.6184,-0.2007 -0.9988,-0.1766 -1.3094,0.1568 -1.9751,0.3728 -3.3689,0.3158 -2.0752,-0.1607 -3.4316,-0.7923 -4.9709,-2.1843 -4.718,-4.7084 -5.4319,-7.3407 -12.3796,-9.1512 0.4871,0.1217 0.8087,0.3486 1.1089,0.776 0.2829,0.452 0.3923,0.8803 0.377,1.4803 -0.0391,0.5957 -0.1861,1.0512 -0.507,1.5754 -0.3411,0.5125 -0.6852,0.8235 -1.1895,1.0747 0.9305,-0.4224 1.6721,-0.5578 2.6089,-0.5214 0.9702,0.0748 1.6746,0.3126 2.4759,0.835 2.9003,2.0463 3.9486,3.5435 6.289,6.1864 0.9182,0.9626 1.8254,1.3656 3.0915,1.6401 1.1931,0.2186 2.2204,0.2156 3.4679,0.0808 2.1913,-0.2926 4.2877,-0.8689 6.3414,-2.1761 6.2007,-4.3847 9.9939,-8.3781 16.9476,-12.4205 0.1168,-0.0719 0.2558,-0.1412 0.3765,-0.2064 4.9021,-2.5011 9.769,-3.981 14.8548,-4.6525 1.9412,-0.2058 3.8105,-0.2884 5.6949,-0.067 0.6004,0.086 1.2867,0.2076 1.8118,0.5041 0.0636,0.0394 0.1777,0.1562 0.1386,0.0872 -0.0649,-0.1242 -0.0853,-0.2669 -0.0725,-0.4226 -0.1345,1.2763 -0.568,2.273 -1.1977,3.4105 -0.8311,1.4275 -1.693,2.5151 -2.7751,3.7093 -1.7375,1.8436 -3.8144,3.7205 -5.906,4.9161 -6.6502,3.5461 -7.2885,3.6825 -14.2632,4.5517 0.4148,-0.0379 0.7173,0.052 1.0315,0.3026 0.3032,0.2733 0.4572,0.5723 0.5295,1.0277 0.0511,0.4608 -0.0119,0.8359 -0.216,1.287 -0.222,0.4427 -0.4729,0.7265 -0.8618,0.9738 4.9899,-3.0031 16.1935,-8.6618 20.1943,-12.3113 1.3933,-1.4157 2.3873,-2.6967 3.2614,-4.5523 0.2398,-0.5305 0.424,-1.0087 0.5818,-1.5649 0.0475,-0.1725 0.0885,-0.3377 0.1229,-0.5119 0.0159,-0.067 0.0241,-0.1412 0.0356,-0.2088 0.0087,-0.0516 0.0115,-0.1032 0.0171,-0.1547 0.0076,-0.0693 0.0044,-0.1375 0.0065,-0.2055 0.0035,-0.11 -0.0206,-0.2118 -0.0308,-0.3155 -0.0123,-0.1256 -0.0818,-0.2937 -0.1256,-0.4026 -2.5682,-1.7368 -5.2776,-1.4361 -8.4457,-0.921 -2.1772,0.3956 -4.1821,0.9351 -6.3293,1.7171 -8.6115,3.3889 -15.0304,7.8312 -22.6993,13.7828 -0.2979,0.2404 -0.4814,0.4863 -0.6382,0.8571 -0.1414,0.3736 -0.1778,0.6757 -0.1249,1.0439 0.0681,0.3629 0.1935,0.602 0.4346,0.8267 0.2513,0.2094 0.4887,0.2914 0.8231,0.2847 10.4231,-0.5 16.314,-0.3078 26.6079,-5.4946 -0.2859,0.1405 -0.5204,0.1688 -0.7964,0.0985 -0.2743,-0.0879 -0.4477,-0.2349 -0.5953,-0.504 -0.1331,-0.2781 -0.167,-0.5317 -0.1163,-0.8742 0.0652,-0.3419 0.1843,-0.59 0.4092,-0.8537 -1.0347,1.1783 -2.029,2.3576 -3.1073,3.4875 -0.7516,0.7691 -1.7312,1.7508 -2.6603,2.1442 -6.0688,2.0992 -10.3791,1.963 -16.2938,2.6579 -0.3213,0.0503 -0.5602,0.1808 -0.8164,0.4479 -0.2439,0.2783 -0.3713,0.5455 -0.4346,0.9117 -1.7911,12.4517 -4.3647,24.9799 -6.1553,37.4297 -0.8638,6.3877 -1.74,12.7774 -2.6184,19.1652 -0.5227,3.6151 -1.2186,6.5011 -2.4826,10.0052 -1.2264,3.2328 -2.4379,5.6891 -4.3346,8.5645 -0.0943,0.1428 -0.1483,0.2642 -0.1916,0.4296 -0.0385,0.1655 -0.0465,0.2963 -0.0265,0.4552 0.0237,0.1582 0.0653,0.2711 0.1441,0.3952 0.0822,0.1195 0.1625,0.1922 0.2845,0.2573 14.995,7.8346 17.2917,9.933 35.2369,12.2301 17.0365,1.714 28.471,0.2167 45.8195,-2.5092 7.2838,-1.3028 14.0598,-4.1149 21.0292,-7.687 7.3353,-3.9411 13.8986,-8.177 19.9349,-14.799 9.5995,-11.3103 17.396,-24.2836 23.554,-38.0552 5.9456,-14.1767 9.4988,-23.8189 11.2486,-38.7778 0.4083,-4.2228 0.5208,-7.8107 -0.7426,-11.5509 -0.9442,-2.452 -1.9199,-3.5461 -3.3815,-5.4679 0.0035,0.0048 0.0028,0.003 0.0015,0.0021 -0.4877,-0.5963 -0.9626,-1.0817 -1.6696,-1.3438 -0.2716,-0.087 -0.4901,-0.1166 -0.7875,-0.0835 -0.2726,0.0398 -0.4766,0.1139 -0.7339,0.2623 -0.5123,0.3212 -0.8402,0.7047 -1.2035,1.2296 -0.3734,0.5621 -0.6452,1.093 -0.9301,1.7066 -0.4562,1.0101 -0.8531,2.1403 -1.3306,3.1044 -0.0635,0.122 -0.1313,0.2468 -0.216,0.3535 -0.0134,0.0203 -0.0371,0.0393 -0.054,0.0553 -0.0044,0.003 0.0104,-0.0028 0.0174,-0.0035 0.0085,-0.0007 0.0177,-0.0002 0.0252,0.0033 -0.0146,-0.0084 -0.0337,-0.0347 -0.0435,-0.049 -0.0779,-0.12 -0.1286,-0.2842 -0.1704,-0.4289 0.0067,0.0245 0.0092,0.0474 0.0084,0.0743 0.071,-1.8878 0.2071,-3.6559 0.758,-5.5435 0.2573,-0.7951 0.5368,-1.4635 1.0883,-2.0885 0.253,-0.2662 0.4644,-0.4242 0.7743,-0.568 0.359,-0.1522 0.6406,-0.1895 1,-0.1809 1.2269,0.0542 2.4133,0.1616 3.6153,0.3348 0.412,0.0387 0.8414,0.1506 1.2455,0.2291 0.1254,0.0243 0.2446,0.068 0.3658,0.1045 0.0442,0.0165 0.1317,0.0749 0.0981,0.0364 2.6839,3.5713 3.7507,6.9573 4.3296,11.8502 0.4284,4.7312 0.1361,8.7242 -0.5945,13.6032 -0.0787,0.5016 -0.162,1.0015 -0.2494,1.5029 -2.0943,11.0668 -5.3348,20.3964 -9.6109,30.923 -6.5262,14.9783 -17.2889,34.4928 -28.9731,45.6137 -8.4379,7.0208 -16.0486,10.7409 -25.5793,14.2254 -10.2229,3.5026 -19.1828,5.329 -29.4664,6.5937 -15.5707,1.5946 -32.5761,1.9161 -47.1647,-1.956 14.5612,3.9405 31.5948,3.6558 47.1569,2.1003 10.2954,-1.2358 19.2641,-3.0387 29.504,-6.5154 9.5699,-3.4714 17.2075,-7.1841 25.6899,-14.2067 11.7004,-10.94 22.6835,-30.8508 29.1858,-45.7178 4.0817,-9.974 7.1869,-18.8236 9.3886,-29.2936z"/>
     <path id="_190340616" class="fil2 str1" d="M68.6154 128.617c2.2247,-12.1118 4.6491,-24.3087 6.6946,-36.4157 -0.1013,0.6017 -0.2998,1.0311 -0.7015,1.4893 -0.41,0.4277 -0.794,0.6386 -1.3085,0.7197 6.2873,-0.5713 10.4954,-0.3725 17.0079,-2.5209 1.6518,-0.6649 2.8431,-1.7483 4.184,-3.0918 1.1427,-1.1697 2.1886,-2.3787 3.287,-3.5961 0.4417,-0.5174 0.6759,-1.0053 0.8039,-1.6763 0.0994,-0.6701 0.0329,-1.1686 -0.2266,-1.713 -0.2906,-0.5312 -0.6298,-0.8212 -1.1712,-0.9944 -0.5477,-0.1396 -1.0057,-0.0811 -1.5725,0.1978 -9.6302,4.6879 -15.3856,4.3459 -25.1244,4.7258 0.5463,-0.0104 0.9377,0.1276 1.348,0.4696 0.3967,0.3702 0.6038,0.7632 0.7159,1.3608 0.0866,0.6066 0.0268,1.1032 -0.2064,1.7186 -0.256,0.6062 -0.5584,1.0136 -1.0451,1.4074 7.2702,-5.5109 13.4274,-9.7614 21.5482,-12.8893 1.9115,-0.6724 3.7005,-1.1444 5.6357,-1.4831 2.0753,-0.3212 4.0559,-0.479 5.9747,0.1296 -0.9199,-0.8958 -1.2416,-0.8318 -1.4234,-1.7995 -0.0296,-0.1725 -0.0463,-0.3268 -0.0496,-0.5063 -0.009,-0.0927 0.0069,-0.2188 0.0099,-0.3168 0.0019,-0.0604 0.0141,-0.1287 0.0208,-0.1901 0.0039,-0.0349 0.0116,-0.0709 0.0174,-0.1057 0.0066,-0.0389 -0.0121,0.0548 -0.015,0.0544 -0.0665,0.2297 -0.1554,0.4443 -0.255,0.6629 -0.5393,1.1262 -1.2075,1.9338 -2.0559,2.7901 -3.097,2.7731 -15.157,8.9981 -19.2738,11.4614 -0.6068,0.3867 -0.9989,0.8308 -1.3453,1.522 -0.3196,0.7067 -0.4175,1.2944 -0.3368,2.0158 0.113,0.7114 0.3544,1.1795 0.8282,1.6061 0.4964,0.3956 0.9691,0.5326 1.624,0.4712 7.4689,-0.9068 8.6293,-1.1887 15.7769,-4.9819 2.6775,-1.5051 5.1168,-3.6585 7.3426,-6.0107 1.4238,-1.5635 2.5095,-2.9564 3.6061,-4.8271 1.1298,-2.0275 1.7695,-3.69 2.0206,-5.9624 0.071,-1.0202 -0.0808,-1.746 -0.5235,-2.5393 -0.3859,-0.6244 -0.7746,-0.9896 -1.358,-1.3606 -1.019,-0.592 -1.969,-0.8177 -3.1399,-0.9886 -2.2121,-0.2657 -4.3204,-0.1912 -6.5985,0.0475 -5.8185,0.7522 -11.3031,2.4559 -16.8925,5.3994 -7.2901,4.239 -10.901,8.1008 -17.3055,12.6949 -1.295,0.8486 -2.9758,1.2566 -4.3607,1.4514 -0.8294,0.0962 -1.5509,0.1183 -2.346,-0.0172 -0.4481,-0.0919 -0.9102,-0.2211 -1.2461,-0.5514 -1.6347,-1.8163 -2.9507,-3.4813 -4.8001,-5.0698 -0.6999,-0.5806 -1.4006,-1.0952 -2.1477,-1.6022 -1.3513,-0.868 -2.5298,-1.2566 -4.1624,-1.3659 -1.6276,-0.0469 -2.9057,0.2135 -4.5146,0.9655 -0.4225,0.2106 -0.7102,0.4706 -0.9958,0.9001 -0.2686,0.4396 -0.3911,0.8209 -0.4231,1.3201 -0.0126,0.5006 0.0796,0.859 0.3158,1.2358 0.2537,0.3603 0.5228,0.5474 0.9339,0.6488 5.942,1.4439 6.8431,4.0249 11.0977,7.968 2.1377,1.8115 4.0619,2.6383 6.9054,2.6839 0.848,0.006 2.9542,-0.136 3.8034,-0.5284 -0.1332,0.0079 -0.2323,-0.0103 -0.3491,-0.0634 -0.1122,-0.0565 -0.1878,-0.1206 -0.2647,-0.2268 -0.0751,-0.112 -0.1147,-0.2113 -0.1404,-0.356 -0.0212,-0.1425 -0.0176,-0.2625 0.0139,-0.4122 -0.1619,0.9564 -0.2635,1.837 -0.3525,2.7905 -0.1436,3.6161 -0.9322,11.6833 0.7937,1.9357 0.1094,-0.6453 0.2113,-1.2901 0.3,-1.9357 0.1265,-0.9088 0.2647,-1.7572 0.4531,-2.6642 0.0142,-0.0702 0.0159,-0.1239 0.0058,-0.1907 -0.0122,-0.0659 -0.0304,-0.1107 -0.0648,-0.1619 -0.0363,-0.0493 -0.0704,-0.0791 -0.1233,-0.1051 -0.0333,-0.0282 -0.1175,-0.0248 -0.1594,-0.0277 -1.4363,0.2025 -2.0869,0.4063 -3.6221,0.3594 -2.5225,-0.1476 -4.195,-0.8932 -6.0877,-2.5442 -4.4411,-4.2598 -5.2912,-6.856 -11.6595,-8.3782 -0.0515,-0.0124 -0.085,-0.0354 -0.117,-0.08 -0.0302,-0.0475 -0.0416,-0.0919 -0.0404,-0.1551 0.0037,-0.063 0.0188,-0.1112 0.0524,-0.1668 0.0361,-0.0548 0.0722,-0.0874 0.1257,-0.1146 1.3391,-0.6386 2.4069,-0.8645 3.7667,-0.8422 1.3854,0.0745 2.3898,0.3887 3.5448,1.1034 3.1127,2.1024 4.3025,3.6203 6.8305,6.3407 0.5462,0.5288 1.1458,0.7251 1.8771,0.8616 0.9285,0.1386 1.7474,0.1048 2.7115,-0.0253 1.6246,-0.2576 3.4311,-0.7434 4.9341,-1.776 3.8929,-2.9097 7.4742,-6.3182 11.4893,-9.3074 1.8718,-1.3615 3.6448,-2.5289 5.6069,-3.6646 5.5238,-2.9948 10.7976,-4.6434 16.5636,-5.5239 2.2293,-0.2624 4.3031,-0.3557 6.4706,-0.1179 1.0942,0.1501 2.0037,0.3514 2.9584,0.8947 0.5094,0.319 0.8548,0.6339 1.1927,1.1748 0.3743,0.6639 0.5042,1.2696 0.447,2.1261 -0.2239,2.1387 -0.8282,3.7123 -1.8823,5.6264 -1.0533,1.82 -2.105,3.1799 -3.4786,4.7041 -2.1657,2.309 -4.5426,4.429 -7.152,5.9194 -7.0876,3.7982 -8.1817,4.0805 -15.6164,5.0068 -0.5443,0.0499 -0.9396,-0.0669 -1.352,-0.3954 -0.3975,-0.3577 -0.5992,-0.7497 -0.6939,-1.3463 -0.0674,-0.6037 0.0148,-1.0955 0.2821,-1.6868 0.291,-0.5809 0.6197,-0.9521 1.1296,-1.2767 4.1961,-2.5246 16.1657,-8.7256 19.3324,-11.5854 0.8949,-0.9059 1.5897,-1.7553 2.1555,-2.9459 0.1111,-0.2449 0.2081,-0.4828 0.2814,-0.7402l0.0239 -0.0934c0,0 -0.0125,0.0762 -0.013,0.0789 -0.0092,0.0537 -0.0117,0.1074 -0.0176,0.1609 -0.0101,0.0917 -0.0057,0.1824 -0.0085,0.2724 0.0031,0.1555 0.0169,0.2869 0.0427,0.4365 0.0394,0.21 0.0921,0.3731 0.1749,0.5604 1.1884,1.5083 -1.7836,0.3492 -5.068,0.8641 -1.9538,0.3447 -3.763,0.8243 -5.6924,1.5077 -8.1546,3.1499 -14.3452,7.4279 -21.6446,12.9718 0.4267,-0.3442 0.6904,-0.6981 0.9148,-1.2292 0.2031,-0.536 0.2553,-0.9686 0.1798,-1.4969 -0.0976,-0.5205 -0.2781,-0.8628 -0.6235,-1.1852 -0.3602,-0.3001 -0.7007,-0.4186 -1.18,-0.4088 9.8034,-0.3893 15.56,-0.0552 25.2572,-4.7882 0.4944,-0.2425 0.8967,-0.2917 1.3738,-0.1704 0.4729,0.1513 0.7718,0.4051 1.026,0.869 0.2294,0.4796 0.2882,0.9163 0.2008,1.507 -0.1125,0.5893 -0.3179,1.0172 -0.7058,1.4715 -1.0934,1.2143 -2.1345,2.4203 -3.2724,3.5868 -1.294,1.299 -2.4656,2.372 -4.0602,3.0151 -6.4782,2.1459 -10.6948,1.9492 -16.9532,2.5382 0.4497,-0.0706 0.7841,-0.2533 1.1425,-0.6273 0.3413,-0.3894 0.519,-0.7626 0.6078,-1.2751 0.1136,-0.3412 -4.0023,22.1303 -5.8016,32.0249 -0.3303,1.7821 -0.6824,3.5834 -0.9843,5.3657 -1.0219,6.3903 -2.0616,12.7766 -3.135,19.1652 -0.6655,3.7894 -1.4869,6.7894 -2.9511,10.4128 -1.4049,3.3301 -2.7598,5.8367 -4.8831,8.711 0,0.0001 -0.0033,0.0038 -0.0039,0.0045 -0.0018,0.0022 -0.0012,0.0044 -0.0017,0.0062 -0.0004,0.0012 0.0003,0.0057 0.0004,0.0071 0.0002,0.002 0.0041,0.0057 0.0041,0.0059 1.6923,1.0244 3.3252,2.0761 4.9404,3.2313 -1.5824,-1.2085 -3.2145,-2.2752 -4.8993,-3.3137 0.0075,0.0025 0.0147,0.0089 0.0197,0.0154 0.0064,0.0048 0.0091,0.0202 0.012,0.0269 0.0037,0.0081 -0.0003,0.0241 -0.0003,0.032 0,0.0058 -0.0124,0.0318 -0.0123,0.0323 2.1448,-2.8689 3.5126,-5.3867 4.93,-8.7239 1.4788,-3.6345 2.3069,-6.6432 2.981,-10.4478 1.0833,-6.3886 2.1302,-12.7747 3.1582,-19.1652 0.0565,-0.3313 0.1212,-0.6655 0.1819,-0.9968z"/>
     <path id="_190340424" class="fil2 str1" d="M68.6154 128.617c-0.0272,0.2224 -0.0536,0.4447 -0.0784,0.667 2.2466,-12.3409 4.7234,-24.7465 6.8064,-37.0827 -0.1032,0.6119 -0.3051,1.0495 -0.7139,1.5153 -0.4165,0.435 -0.8083,0.6499 -1.3312,0.7322 6.2898,-0.5725 10.4998,-0.3751 17.0146,-2.5251 1.6582,-0.6679 2.8516,-1.7524 4.1975,-3.1013 1.1431,-1.1705 2.1894,-2.3796 3.2881,-3.5977 0.4475,-0.5242 0.6847,-1.0186 0.8145,-1.6984 0.1005,-0.6786 0.0334,-1.1839 -0.2296,-1.7353 -0.2944,-0.5384 -0.638,-0.832 -1.1866,-1.0076 -0.5547,-0.1412 -1.019,-0.0821 -1.5931,0.2005 -9.6256,4.6861 -15.3776,4.3438 -25.1119,4.7237 0.5532,-0.0102 0.9488,0.129 1.3645,0.4754 0.4015,0.3746 0.6111,0.7727 0.7246,1.3775 0.0878,0.6137 0.027,1.117 -0.2089,1.7397 -0.2592,0.6135 -0.5652,1.0261 -1.058,1.4246 7.2665,-5.5084 13.4227,-9.7585 21.5392,-12.8846 1.9098,-0.672 3.6972,-1.1435 5.6307,-1.4819 2.0701,-0.3205 4.0489,-0.4785 5.9628,0.1286 -0.9305,-0.9063 -1.2553,-0.8411 -1.4394,-1.8197 -0.0301,-0.1749 -0.0466,-0.3301 -0.0501,-0.512 -0.0092,-0.0938 0.0069,-0.2214 0.01,-0.3204 0.002,-0.0612 0.0142,-0.1303 0.0211,-0.1926 0.0039,-0.0355 0.0117,-0.0722 0.0178,-0.1078 0.0071,-0.0361 -0.0138,0.0492 -0.0143,0.0513 -0.0661,0.2275 -0.1539,0.44 -0.2527,0.6565 -0.537,1.1211 -1.2028,1.9258 -2.0475,2.7781 -0.3173,0.3071 -0.6334,0.5623 -0.9773,0.8227 -4.9273,3.5208 -12.8404,7.367 -18.2898,10.6336 -0.6133,0.3907 -1.0101,0.8402 -1.3602,1.5387 -0.3231,0.7151 -0.4219,1.308 -0.3405,2.038 0.1142,0.7189 0.3584,1.1928 0.8373,1.6237 0.5017,0.4 0.98,0.5385 1.6419,0.4765 7.4719,-0.9071 8.6364,-1.1905 15.787,-4.9851 2.6809,-1.5073 5.1233,-3.6628 7.352,-6.018 1.4257,-1.5657 2.5137,-2.9611 3.6116,-4.8345 1.1329,-2.0325 1.7745,-3.7012 2.0261,-5.9793 0.0717,-1.0275 -0.0814,-1.7603 -0.5273,-2.5591 -0.3884,-0.6285 -0.779,-0.9954 -1.3662,-1.369 -1.0223,-0.594 -1.9741,-0.8203 -3.1486,-0.9919 -2.2144,-0.266 -4.3242,-0.1918 -6.6047,0.0471 -5.8233,0.7526 -11.3095,2.4564 -16.9039,5.402 -7.292,4.2397 -10.9033,8.1013 -17.3089,12.6945 -1.2879,0.8443 -2.9684,1.2512 -4.3458,1.4448 -0.8269,0.0957 -1.5443,0.1177 -2.3371,-0.0174 -0.4414,-0.0907 -0.8999,-0.2182 -1.2312,-0.5433 -1.8391,-2.0458 -3.1631,-3.7436 -5.302,-5.4806 -0.5404,-0.4232 -1.0838,-0.8146 -1.6494,-1.1979 -1.3562,-0.8717 -2.5381,-1.2619 -4.1766,-1.3725 -1.6337,-0.048 -2.9171,0.2129 -4.5324,0.9666 -0.4318,0.2154 -0.7251,0.4802 -1.0171,0.9194 -0.2743,0.4488 -0.3993,0.8383 -0.4321,1.3481 -0.0125,0.5115 0.081,0.877 0.3226,1.2621 0.2587,0.368 0.5341,0.5591 0.9537,0.6627 5.9275,1.4453 6.8288,4.0313 11.0698,7.9765 2.1454,1.8253 4.0754,2.6565 6.9311,2.7144 1.0212,0.0184 1.8959,-0.0609 2.9295,-0.2791 0.0821,-0.018 0.8394,-0.1939 0.882,-0.2384 -0.1466,0.0088 -0.2547,-0.011 -0.3834,-0.0693 -0.1235,-0.062 -0.2062,-0.1324 -0.2909,-0.2489 -0.0829,-0.1234 -0.1259,-0.2316 -0.1545,-0.391 -0.0233,-0.1577 -0.0195,-0.2873 0.0151,-0.4529 -0.1643,0.9586 -0.2687,1.8429 -0.3606,2.799 -0.0411,1.0118 -0.6572,7.894 -0.4508,8.2402 0.126,0.0051 0.414,-1.3007 0.4387,-1.4091 0.328,-1.518 0.6116,-3.05 0.8725,-4.5726 0.0989,-0.5727 0.19,-1.1455 0.275,-1.7185 0.0267,-0.1801 0.0523,-0.36 0.0771,-0.54 0.1268,-0.9074 0.2654,-1.7556 0.4546,-2.6609 0.0153,-0.0764 0.0174,-0.1338 0.0063,-0.2064 -0.0132,-0.0714 -0.0328,-0.1201 -0.0701,-0.1754 -0.0399,-0.0543 -0.0757,-0.085 -0.1335,-0.114 -0.0583,-0.0257 -0.1065,-0.0344 -0.1728,-0.03 -1.4331,0.1984 -2.0872,0.403 -3.617,0.3532 -0.0392,0.0018 -0.0927,-0.0045 -0.1328,-0.0067 -2.458,-0.1781 -4.0872,-0.9168 -5.9338,-2.5321 -1.9111,-1.8055 -3.5516,-3.8706 -5.5226,-5.5653 -2.0065,-1.6101 -3.6384,-2.2857 -6.1505,-2.8268 -0.0416,-0.0098 -0.0685,-0.0283 -0.0944,-0.0642 -0.0242,-0.0381 -0.0337,-0.0741 -0.0327,-0.1249 0.0031,-0.051 0.0148,-0.0894 0.0422,-0.1346 0.0288,-0.0441 0.0583,-0.0708 0.1013,-0.0927 1.3316,-0.6352 2.3936,-0.86 3.7457,-0.838 1.3778,0.0738 2.3778,0.3865 3.5266,1.0972 3.1088,2.0988 4.299,3.6172 6.8242,6.3345 0.5515,0.5352 1.1575,0.735 1.8967,0.8728 0.9327,0.1396 1.7548,0.1055 2.7234,-0.025 1.6331,-0.2588 3.4436,-0.7467 4.9545,-1.7842 4.2901,-3.2144 8.0232,-6.8203 12.5263,-10.0568 1.5198,-1.065 2.9859,-2.0062 4.5643,-2.9187 5.5208,-2.9961 10.786,-4.6422 16.5493,-5.5266 2.2273,-0.2628 4.2985,-0.3567 6.4643,-0.1199 1.0904,0.1495 1.9979,0.3496 2.9494,0.8908 0.5064,0.3171 0.8483,0.6283 1.1844,1.1658 0.3709,0.6574 0.4996,1.2575 0.4431,2.1057 -0.2228,2.1319 -0.8255,3.7012 -1.8761,5.6093 -1.0518,1.8178 -2.1011,3.1747 -3.4727,4.6972 -2.1627,2.3063 -4.5365,4.4242 -7.1423,5.9131 -7.0846,3.7971 -8.1745,4.0787 -15.6069,5.0049 -0.5375,0.0493 -0.9284,-0.0661 -1.3357,-0.3906 -0.3926,-0.3533 -0.592,-0.7408 -0.6855,-1.3301 -0.0665,-0.5966 0.0147,-1.0821 0.2787,-1.6664 0.2876,-0.574 0.6122,-0.9405 1.116,-1.2613 4.2037,-2.5293 16.1641,-8.7243 19.3383,-11.5906 0.8975,-0.9086 1.5958,-1.7622 2.163,-2.9567 0.1126,-0.2479 0.2091,-0.4855 0.2836,-0.7458 0.0034,-0.0092 0.0245,-0.0963 0.0245,-0.0963 0.0001,0 -0.0122,0.0743 -0.0127,0.0769 -0.009,0.053 -0.0115,0.106 -0.0173,0.1588 -0.01,0.0906 -0.0056,0.1802 -0.0084,0.2691 0.0032,0.1538 0.0167,0.2832 0.0422,0.4313 0.0392,0.2084 0.0908,0.3679 0.1728,0.5538 1.2728,1.5539 -1.1593,0.3376 -4.3575,0.7404 -0.2447,0.0335 -0.4887,0.0705 -0.7336,0.1112 -1.9555,0.345 -3.7658,0.8249 -5.6969,1.5089 -8.1578,3.1509 -14.3504,7.4299 -21.653,12.9754 0.4219,-0.3405 0.6809,-0.6883 0.903,-1.2133 0.2004,-0.5292 0.252,-0.9559 0.1774,-1.4775 -0.0962,-0.5139 -0.2745,-0.8516 -0.6153,-1.1699 -0.3555,-0.2962 -0.6918,-0.4131 -1.1648,-0.4034 9.8079,-0.389 15.5664,-0.0548 25.2688,-4.7888 0.488,-0.2391 0.8832,-0.2874 1.3542,-0.168 0.4663,0.1495 0.7603,0.3991 1.0112,0.8566 0.2262,0.4731 0.2839,0.9027 0.1979,1.4854 -0.1108,0.5806 -0.3135,1.0028 -0.6957,1.4503 -1.0928,1.2137 -2.1341,2.4194 -3.2714,3.5851 -1.2904,1.2948 -2.4572,2.3646 -4.0473,3.0059 -6.4742,2.1436 -10.6914,1.9463 -16.9464,2.5334 0.4406,-0.0691 0.7688,-0.2483 1.1199,-0.6149 0.3345,-0.3811 0.509,-0.7482 0.5959,-1.2499 0.1059,-0.3224 -3.8832,21.4869 -5.6454,31.1407 -0.0415,0.2948 -0.0827,0.5897 -0.1235,0.8846 0.0548,-0.3704 0.1102,-0.7408 0.1659,-1.1112 -0.4001,2.1509 -0.8277,4.3257 -1.1933,6.4769 -1.0243,6.3905 -2.067,12.7766 -3.1449,19.1652 -0.6677,3.7838 -1.4893,6.7774 -2.9565,10.3935 -1.4058,3.3189 -2.7619,5.8213 -4.8892,8.6781 -0.0106,0.0148 -0.0166,0.027 -0.0219,0.0445 -0.0066,0.0136 -0.0032,0.0367 -0.0043,0.0488 -0.0015,0.0152 0.0102,0.0329 0.0138,0.0441 0.0083,0.0136 0.0176,0.0225 0.0306,0.0302 1.3288,0.8121 2.6199,1.644 3.8962,2.5457 0.6648,0.3606 1.3283,0.7239 1.9916,1.0874 -1.8412,-1.4403 -3.7742,-2.6925 -5.7539,-3.9031 0.0202,0.0099 0.0333,0.0219 0.0472,0.0407 0.0151,0.0128 0.0195,0.0493 0.0261,0.066 0.0077,0.0194 -0.0024,0.0575 -0.0031,0.0763 -0.0067,0.0277 -0.0157,0.05 -0.0312,0.0742 2.142,-2.886 3.5081,-5.409 4.9247,-8.758 1.4758,-3.6437 2.3023,-6.6565 2.9741,-10.4684 1.0779,-6.3886 2.1213,-12.775 3.1467,-19.1652 0.0186,-0.1096 0.0398,-0.2201 0.0597,-0.3298 0.0248,-0.2223 0.0512,-0.4446 0.0784,-0.667 0.0311,-0.2532 0.0635,-0.5064 0.0966,-0.7597 -0.1079,0.5837 -0.2227,1.1729 -0.3228,1.7565 -1.0308,6.3906 -2.081,12.7766 -3.1695,19.1652 -0.6759,3.7969 -1.5057,6.8023 -2.9874,10.4273 -1.4187,3.3249 -2.7881,5.8387 -4.9391,8.6868 -0.0011,0.0019 -0.0058,0.0088 -0.0076,0.0118 -0.0026,0.0043 -0.0019,0.0108 -0.0026,0.0145 -0.0009,0.0048 0.0019,0.0105 0.0028,0.0145 0.0006,0.0031 0.0092,0.011 0.0092,0.0111 1.3232,0.8266 2.6092,1.6722 3.8601,2.6189 0.3635,0.1973 0.7266,0.3954 1.0894,0.5939 0.3016,0.1628 0.6031,0.3259 0.9045,0.489 -1.8902,-1.3752 -3.8068,-2.6086 -5.8011,-3.8082 0.0084,0.0031 0.0153,0.0099 0.0211,0.0171 0.0066,0.0053 0.0094,0.0219 0.0125,0.0291 0.0037,0.0087 -0.0007,0.0258 -0.0008,0.0342 -0.0001,0.0063 -0.0136,0.0337 -0.0134,0.0342 2.1212,-2.888 3.4758,-5.4022 4.8795,-8.7421 1.4615,-3.6312 2.2813,-6.6365 2.9444,-10.4321 1.0679,-6.3886 2.1038,-12.775 3.1225,-19.1652 0.2529,-1.5015 0.5479,-3.0192 0.8252,-4.5206 1.9885,-10.9268 4.1537,-21.9719 5.9581,-32.8921 -0.09,0.5348 -0.2665,0.9162 -0.6234,1.3233 -0.3643,0.3802 -0.7054,0.5671 -1.1625,0.6394 6.2613,-0.5889 10.4761,-0.3934 16.9574,-2.5405 1.6016,-0.6461 2.7748,-1.7201 4.0745,-3.0248 1.1382,-1.1671 2.18,-2.3738 3.2737,-3.5887 0.3938,-0.4614 0.6025,-0.8962 0.7167,-1.4945 0.0883,-0.5971 0.0295,-1.0419 -0.2021,-1.527 -0.2587,-0.4736 -0.5617,-0.732 -1.044,-0.8866 -0.4887,-0.124 -0.8961,-0.0724 -1.4018,0.1765 -9.6852,4.7267 -15.4401,4.3939 -25.2319,4.7835 0.4825,-0.0091 0.8285,0.1128 1.191,0.415 0.3505,0.3271 0.5333,0.6743 0.6324,1.2023 0.0766,0.5355 0.0236,0.9752 -0.1823,1.5185 -0.2262,0.5354 -0.4933,0.8957 -0.9234,1.2434 7.2954,-5.5413 13.48,-9.8156 21.6304,-12.9646 1.9278,-0.6829 3.7353,-1.162 5.6876,-1.5065 0.2445,-0.0405 0.4878,-0.0775 0.7321,-0.111 1.895,-0.2387 3.6259,-0.3183 5.3768,0.2375 -0.8052,-0.784 -1.0839,-0.7265 -1.2436,-1.5721 -0.0259,-0.1506 -0.0404,-0.2852 -0.0433,-0.4421 -0.0079,-0.0808 0.0059,-0.1907 0.0086,-0.276 0.0016,-0.0519 0.012,-0.1104 0.0178,-0.1632 0.003,-0.0267 0.0088,-0.0545 0.0134,-0.0812 0.003,-0.0138 -0.0119,0.0499 -0.0231,0.0903 -0.0727,0.2552 -0.1689,0.491 -0.2792,0.734 -0.5628,1.185 -1.2567,2.0323 -2.1471,2.9337 -3.1595,2.8531 -15.1404,9.0607 -19.3292,11.5805 -0.5153,0.3287 -0.8482,0.7055 -1.1424,1.2926 -0.2712,0.6008 -0.3544,1.0985 -0.2859,1.7118 0.0962,0.6041 0.3009,1.0013 0.7034,1.3635 0.4215,0.3359 0.8229,0.452 1.3789,0.3999 7.4332,-0.9254 8.5329,-1.2107 15.6197,-5.007 2.6134,-1.4923 4.994,-3.6145 7.1634,-5.9267 1.3766,-1.5272 2.4301,-2.8889 3.4859,-4.7124 1.0583,-1.9208 1.6646,-3.5006 1.8897,-5.6469 0.0581,-0.8664 -0.0735,-1.4787 -0.4517,-2.1504 -0.3415,-0.5465 -0.6881,-0.8628 -1.2026,-1.1856 -0.9594,-0.5462 -1.8699,-0.7481 -2.9692,-0.8994 -2.1706,-0.2388 -4.2458,-0.1459 -6.4782,0.1159 -5.7703,0.8775 -11.0515,2.5281 -16.5798,5.5233 -2.3432,1.3587 -4.4029,2.748 -6.6179,4.4152 -3.5823,2.7519 -6.9528,5.922 -10.4833,8.5559 -1.4945,1.0278 -3.297,1.5119 -4.9126,1.7683 -0.9594,0.1299 -1.7756,0.1639 -2.6995,0.0264 -0.7221,-0.1346 -1.3177,-0.3279 -1.8574,-0.8497 -2.5305,-2.7218 -3.7225,-4.241 -6.8383,-6.3447 -1.1606,-0.7181 -2.1704,-1.0337 -3.5624,-1.1086 -0.0278,-0.0086 -0.2218,-0.0045 -0.2659,-0.0045 -1.2756,0.0228 -2.2711,0.2524 -3.5208,0.85 -0.0634,0.0319 -0.1062,0.0709 -0.1489,0.1355 -0.04,0.0657 -0.058,0.1234 -0.0624,0.1978 -0.0015,0.0745 0.0121,0.1281 0.0477,0.1839 0.0084,0.0323 0.1077,0.0978 0.1395,0.0954 6.3554,1.5195 7.2093,4.1104 11.6471,8.3628 0.1348,0.1247 0.271,0.2445 0.411,0.3618 1.8097,1.4228 3.3744,2.0581 5.6963,2.1853 0.5478,0.0234 1.0578,0.0103 1.6142,-0.0413 0.712,-0.0747 1.3368,-0.2324 2.0113,-0.3212 0.0566,-0.0037 0.0982,0.0034 0.1479,0.0255 0.0477,0.0235 0.0804,0.0513 0.1131,0.096 0.0319,0.0471 0.0496,0.0895 0.0606,0.1506 0.0095,0.0618 0.0078,0.1108 -0.0053,0.1758 -0.1887,0.9088 -0.3267,1.7574 -0.4533,2.6675 -0.0281,0.1782 -0.0498,0.3603 -0.0764,0.5394 -0.0465,0.3129 -0.0943,0.6259 -0.1475,0.9387 -0.13,0.7848 -0.2733,1.6068 -0.4634,2.3861 -0.0222,0.0991 -0.2628,1.2055 -0.3822,1.2012 -0.1899,-0.2162 0.0838,-4.4524 0.0958,-5.0654 0.0648,-0.9264 0.1973,-1.8548 0.341,-2.7828 -0.0287,0.137 -0.0319,0.2424 -0.0129,0.3729 0.0232,0.1289 0.0576,0.2184 0.1244,0.3186 0.0707,0.0982 0.1377,0.156 0.2412,0.2083 0.1049,0.048 0.1941,0.0644 0.3137,0.0577 -0.8566,0.3998 -2.9392,0.5448 -3.7939,0.5406 -0.0019,0.0021 -0.2906,-0.0021 -0.3179,-0.0027 -2.6994,-0.1148 -4.5237,-0.9258 -6.5618,-2.6533 -4.272,-3.9457 -5.1675,-6.5183 -11.1312,-7.9603 -0.3991,-0.0992 -0.6625,-0.2841 -0.9087,-0.634 -0.232,-0.3695 -0.3215,-0.7205 -0.3093,-1.2116 0.0316,-0.4879 0.1516,-0.8617 0.4143,-1.2912 0.2793,-0.4205 0.5612,-0.6751 0.9746,-0.8814 1.6029,-0.7505 2.876,-1.0114 4.4981,-0.9658 1.6276,0.1078 2.8022,0.494 4.1498,1.3584 0.9236,0.6274 1.7641,1.2558 2.6116,1.9998 1.6039,1.4567 2.8749,3.0487 4.3325,4.6666 0.3398,0.3346 0.8061,0.4662 1.2598,0.5593 0.798,0.1363 1.5217,0.1138 2.3541,0.0175 1.3903,-0.1957 3.0752,-0.605 4.3751,-1.457 6.4032,-4.5929 10.0146,-8.4555 17.3028,-12.6935 5.5855,-2.9417 11.0662,-4.6438 16.8807,-5.396 2.2757,-0.2383 4.3824,-0.3131 6.5922,-0.0476 1.167,0.1702 2.115,0.3952 3.1305,0.9852 0.5794,0.3684 0.9666,0.7314 1.3496,1.3516 0.4389,0.7868 0.5898,1.5068 0.5193,2.5187 -0.2503,2.2656 -0.8885,3.923 -2.0149,5.9445 -1.0944,1.8676 -2.179,3.2583 -3.6002,4.8192 -2.2227,2.349 -4.6588,4.4998 -7.3326,6.0031 -7.1493,3.7942 -8.305,4.0727 -15.7757,4.9798 -0.6423,0.0588 -1.1093,-0.0792 -1.5959,-0.4669 -0.469,-0.4223 -0.7073,-0.8851 -0.8189,-1.5893 -0.0794,-0.7124 0.0177,-1.2931 0.3332,-1.9908 0.3434,-0.6855 0.7315,-1.1236 1.3332,-1.5066 5.4522,-3.2682 13.3614,-7.1123 18.2923,-10.6355 0.3464,-0.2624 0.6652,-0.5197 0.9848,-0.8292 0.8519,-0.8596 1.5235,-1.6721 2.0648,-2.8028 0.1006,-0.2207 0.1901,-0.4374 0.2574,-0.6693 0.0058,-0.0205 0.022,-0.0884 0.0158,-0.0578 0,0 -0.0163,0.0995 -0.017,0.1034 -0.0106,0.0626 -0.0136,0.1252 -0.0205,0.1877 -0.0117,0.1054 -0.0066,0.2096 -0.0098,0.313 0.0035,0.1779 0.0196,0.3293 0.049,0.5004 0.0456,0.2419 0.1051,0.4262 0.2003,0.6422 1.5221,1.8168 -0.9716,0.4154 -4.7808,1.0056 -1.9368,0.3387 -3.7276,0.8115 -5.6407,1.4844 -8.1266,3.1301 -14.2878,7.3833 -21.563,12.8982 0.484,-0.3906 0.7824,-0.791 1.0371,-1.3935 0.2299,-0.6071 0.2895,-1.0983 0.2037,-1.6968 -0.1104,-0.5898 -0.3154,-0.9783 -0.7067,-1.3435 -0.4086,-0.3404 -0.7941,-0.4742 -1.3377,-0.4634 9.7526,-0.3802 15.5074,-0.0367 25.1512,-4.7316 0.5557,-0.2726 1.0076,-0.328 1.544,-0.1916 0.5318,0.1702 0.867,0.4552 1.1531,0.9767 0.2577,0.5395 0.324,1.0293 0.2256,1.6938 -0.1263,0.6618 -0.3573,1.1435 -0.7932,1.6537 -1.0976,1.2168 -2.1436,2.4254 -3.2857,3.5942 -1.3352,1.338 -2.525,2.4202 -4.1699,3.082 -6.51,2.1472 -10.7191,1.9468 -17.0039,2.517 0.5073,-0.0797 0.8835,-0.2853 1.288,-0.7071 0.3847,-0.439 0.5852,-0.8598 0.6852,-1.4375 -2.0058,11.8431 -4.3694,23.7842 -6.5599,35.6311 -0.0331,0.2533 -0.0655,0.5065 -0.0966,0.7597z"/>
     <path id="_190340088" class="fil2 str1" d="M193.429 137.873c-4.1521,6.835 -8.533,13.3369 -13.57,19.416 -6.1801,6.9117 -12.8799,11.3091 -20.445,15.4309 -7.1716,3.7241 -14.0667,6.603 -21.5741,7.9792 -17.5489,2.811 -29.0087,4.3033 -46.2509,2.5358 -18.1767,-2.3611 -20.5268,-4.5191 -35.6538,-12.5502 -0.342,-0.1836 -0.5701,-0.3929 -0.8007,-0.7285 -0.2267,-0.3576 -0.3431,-0.6769 -0.4111,-1.1325 -0.055,-0.45 -0.0316,-0.818 0.0773,-1.286 0.1234,-0.4702 0.2767,-0.8158 0.545,-1.2216 1.7952,-2.691 2.9439,-4.9951 4.1123,-8.0267 1.2216,-3.3264 1.8997,-6.0726 2.4184,-9.5103 0.9141,-6.3884 1.8311,-12.7768 2.7506,-19.1652 1.9438,-12.4581 4.4892,-24.9539 6.4762,-37.4163 0.122,-0.7218 0.3612,-1.238 0.8434,-1.7872 0.4926,-0.5134 0.9534,-0.7659 1.5713,-0.8629 5.7917,-0.5892 10.1564,-0.4103 16.0902,-2.3817 0.692,-0.2603 1.7248,-1.2766 2.2873,-1.8402 0.7353,-0.7503 1.4284,-1.5237 2.1305,-2.3144 0.3211,-0.3617 0.6475,-0.7429 0.9762,-1.0928 -0.3788,0.4439 -0.5792,0.8632 -0.6889,1.4387 -0.0847,0.5742 -0.0281,1.0021 0.1948,1.4686 0.2495,0.4556 0.5405,0.7035 1.005,0.852 0.469,0.119 0.8622,0.0693 1.3474,-0.1702 -10.4877,5.0719 -16.3986,4.618 -26.8635,4.7854 -0.3579,0.0062 -0.6131,-0.0839 -0.8818,-0.3085 -0.2591,-0.2426 -0.3934,-0.4995 -0.4663,-0.8905 -0.0559,-0.3966 -0.0171,-0.7203 0.1359,-1.1223 0.1676,-0.3954 0.3651,-0.6604 0.6831,-0.9169 3.6938,-2.6003 25.5512,-15.1365 11.9563,-6.8545 -3.9612,2.4895 -7.6081,5.0851 -11.4172,7.9243 -0.0819,0.0658 -0.1324,0.133 -0.1756,0.2348 -0.0393,0.1028 -0.049,0.1856 -0.0349,0.2871 0.0188,0.1 0.0526,0.166 0.1191,0.2281 0.0684,0.0578 0.1355,0.0808 0.2269,0.079 10.2312,-0.3197 16.1116,0.0959 26.3594,-4.7258 -0.1843,0.0909 -0.3342,0.109 -0.5122,0.0645 -0.1769,-0.0566 -0.2887,-0.1503 -0.3842,-0.3237 -0.0861,-0.1796 -0.1084,-0.342 -0.076,-0.5635 0.0415,-0.2204 0.1186,-0.3817 0.2634,-0.5519 -1.0644,1.1539 -2.0842,2.3128 -3.1896,3.419 -0.8056,0.7903 -1.8222,1.767 -2.8122,2.1288 -6.1341,1.9361 -10.3809,1.6779 -16.3169,2.1715 -0.3806,0.0593 -0.663,0.213 -0.9667,0.5291 -0.2895,0.329 -0.4404,0.6461 -0.516,1.0797 -0.0214,0.0262 -1.4463,7.9415 -1.5644,8.5816 -1.7705,9.5709 -3.6685,19.2827 -5.2461,28.8511 -0.9903,6.3789 -1.9241,12.7844 -2.8554,19.1652 -0.5423,3.4852 -1.2419,6.2652 -2.4939,9.6338 -1.1977,3.074 -2.372,5.4068 -4.2036,8.1323 -0.2295,0.3474 -0.361,0.6433 -0.4666,1.0458 -0.0944,0.4059 -0.1133,0.7188 -0.0652,1.1087 0.0577,0.3855 0.1592,0.6603 0.3509,0.9627 0.1999,0.2909 0.3957,0.469 0.6924,0.6274 15.0808,8.0857 17.3247,10.2335 35.5218,12.6254 17.1946,1.7962 28.6603,0.3067 46.1848,-2.4873 7.476,-1.3618 14.3607,-4.2358 21.5048,-7.9363 7.5419,-4.0977 14.2153,-8.4702 20.3878,-15.342 3.7387,-4.4652 7.0791,-9.1884 10.3198,-14.1069 5.265,-8.2216 9.3032,-15.6005 13.1099,-24.6628 4.2779,-10.6145 8.0576,-20.6314 9.3504,-31.8038 -1.0731,10.9049 -5.1018,21.5129 -9.2505,31.845 -2.9229,7.0117 -5.9853,12.9373 -9.8393,19.4519z"/>
     <path id="_190340064" class="fil2 str1" d="M193.429 137.873c-0.1925,0.2974 -0.3861,0.594 -0.5805,0.8899 -4.0009,6.5015 -8.2029,12.6949 -13.0128,18.4991 -6.1745,6.9071 -12.8722,11.304 -20.4313,15.423 -7.1677,3.723 -14.0601,6.6016 -21.5637,7.9778 -17.5464,2.8117 -29.0033,4.3046 -46.2439,2.5377 -5.6955,-0.6924 -10.9408,-1.5103 -16.3662,-3.1575 -7.234,-2.3965 -12.6281,-5.8859 -19.2797,-9.3899 -0.3381,-0.1813 -0.5636,-0.3886 -0.7917,-0.7201 -0.2238,-0.3531 -0.3393,-0.6698 -0.4063,-1.1197 -0.0542,-0.4457 -0.0316,-0.8078 0.0764,-1.2713 0.1214,-0.4641 0.274,-0.8073 0.5387,-1.2078 1.7977,-2.695 2.9468,-4.9998 4.1171,-8.0358 1.2227,-3.33 1.9015,-6.0779 2.4207,-9.5193 0.914,-6.3884 1.8311,-12.7768 2.7508,-19.1652 1.9436,-12.4577 4.4895,-24.9539 6.4774,-37.4163 0.1205,-0.7122 0.3563,-1.2212 0.8321,-1.7631 0.4861,-0.5067 0.9405,-0.7555 1.5502,-0.8514 5.7961,-0.5891 10.1579,-0.4097 16.097,-2.3821 0.7022,-0.2648 1.731,-1.2777 2.3016,-1.8494 0.631,-0.6427 1.2298,-1.3029 1.8333,-1.9797 0.4204,-0.4721 0.8454,-0.971 1.2752,-1.4283 -0.3724,0.4367 -0.5696,0.8487 -0.6774,1.4148 -0.0834,0.5646 -0.0276,0.9856 0.1916,1.4442 0.2453,0.4481 0.5315,0.6916 0.9883,0.8377 0.4616,0.1169 0.8472,0.0683 1.3249,-0.1673 -4.8136,2.3853 -8.1112,3.4708 -13.0973,4.1509 -4.6149,0.5351 -9.1804,0.5361 -13.7497,0.6058 -0.3453,0.0058 -0.5917,-0.0811 -0.8508,-0.2978 -0.2496,-0.2339 -0.3797,-0.4822 -0.4498,-0.8593 -0.054,-0.3825 -0.0162,-0.6949 0.1311,-1.0826 0.1621,-0.3818 0.3519,-0.6367 0.6591,-0.8844 2.2039,-1.5949 4.499,-3.1484 6.769,-4.5837 0.9384,-0.5851 7.6186,-4.6107 8.4431,-4.4919 0.0306,0.1027 -0.8972,0.6526 -0.9602,0.6916 -0.9638,0.6139 -1.9408,1.1963 -2.9061,1.8099 -0.6288,0.3979 -1.2549,0.8041 -1.879,1.214 -3.0683,2.0263 -5.9867,4.1277 -8.9685,6.3487 -0.0885,0.0712 -0.1433,0.144 -0.19,0.2541 -0.0423,0.111 -0.0533,0.2011 -0.0377,0.3107 0.02,0.1083 0.0573,0.1796 0.1288,0.2469 0.0751,0.0626 0.1456,0.0873 0.2456,0.0854 0.0004,0.0006 3.8827,-0.1207 4.2582,-0.1331 8.7525,-0.3098 13.3937,-0.4572 22.116,-4.5912 -0.1934,0.0952 -0.3507,0.1145 -0.5375,0.0676 -0.1856,-0.0591 -0.3031,-0.158 -0.4032,-0.3398 -0.0906,-0.188 -0.1136,-0.3593 -0.0798,-0.5913 0.0439,-0.2317 0.1243,-0.4 0.2765,-0.5791 -1.0641,1.1531 -2.0836,2.3111 -3.1889,3.4162 -0.3111,0.3217 -0.6759,0.6544 -1.0098,0.9436 -0.5509,0.4702 -1.1442,0.9474 -1.7855,1.172 -6.13,1.9319 -10.3763,1.6724 -16.308,2.1664 -0.392,0.0607 -0.6835,0.2198 -0.9964,0.5453 -0.2982,0.3394 -0.4538,0.6656 -0.5316,1.1127 -0.0206,0.0255 -1.2392,6.8232 -1.3408,7.3745 -1.8387,9.9734 -3.8181,20.0893 -5.4607,30.0588 -0.9887,6.3793 -1.922,12.7841 -2.8529,19.1652 -0.541,3.4805 -1.2407,6.2603 -2.4908,9.6244 -1.196,3.0701 -2.3691,5.4008 -4.1983,8.1229 -0.2325,0.3519 -0.3662,0.6526 -0.473,1.0603 -0.0956,0.4103 -0.115,0.7297 -0.0661,1.1239 0.0585,0.3905 0.1614,0.6695 0.3557,0.9759 0.2028,0.2949 0.401,0.4755 0.7019,0.6359 15.0836,8.0871 17.3334,10.2359 35.5301,12.6272 0.6666,0.0786 1.3334,0.1523 2.002,0.2216 16.2705,1.4542 27.6444,-0.0704 44.1898,-2.709 7.4799,-1.3626 14.3666,-4.2365 21.5144,-7.9389 7.547,-4.1002 14.2225,-8.4741 20.3995,-15.35 3.8974,-4.6562 7.3699,-9.5918 10.729,-14.7347 -0.001,-0.0009 -0.0021,-0.0017 -0.0031,-0.0025 0.0458,-0.0695 0.0916,-0.139 0.1373,-0.2084 5.0356,-7.9542 8.9135,-15.0983 12.5833,-23.8324 4.4973,-11.1602 8.3474,-21.4009 9.5483,-33.1396 -0.0753,0.4403 -0.1537,0.8805 -0.2352,1.3204 -0.0807,0.4429 -0.1645,0.8857 -0.2516,1.3283 -1.1684,10.4168 -5.0748,20.6307 -9.0392,30.5 -3.108,7.4534 -6.3726,13.6918 -10.5195,20.5823 0.2416,-0.3702 0.4818,-0.7414 0.7205,-1.1137 0.1938,-0.3015 0.3866,-0.6038 0.5784,-0.9068 3.6233,-6.2055 6.5264,-11.8752 9.3015,-18.5285 4.3455,-10.8208 8.495,-21.7649 9.4451,-33.182 -0.1406,0.82 -0.2919,1.6394 -0.4543,2.458 -1.4127,10.7779 -5.041,20.4026 -9.1714,30.6497 -3.9757,9.4656 -8.2138,17.1304 -13.7677,25.6754 0.2338,-0.331 0.4664,-0.6631 0.6979,-0.9961 -0.1868,0.2659 -0.3744,0.5313 -0.5627,0.7959 -3.0831,4.6269 -6.2483,9.0695 -9.7789,13.2856 -6.1697,6.869 -12.8369,11.2375 -20.3752,15.334 -7.1397,3.6991 -14.0232,6.573 -21.4948,7.9346 -16.541,2.6394 -27.9112,4.1647 -44.1769,2.7108 -0.6683,-0.0691 -1.335,-0.143 -2.0012,-0.2215 -18.1981,-2.3914 -20.4376,-4.5404 -35.5206,-12.6266 -0.2893,-0.1557 -0.4816,-0.3318 -0.6769,-0.6159 -0.1913,-0.3021 -0.2901,-0.5725 -0.3473,-0.9574 -0.0465,-0.381 -0.0268,-0.6907 0.0654,-1.087 0.104,-0.3969 0.2343,-0.6901 0.4607,-1.0325 1.8335,-2.7284 3.0092,-5.0637 4.2083,-8.1409 1.2531,-3.371 1.9539,-6.1549 2.4967,-9.6427 0.9443,-6.3886 1.8964,-12.7768 2.8567,-19.1652 1.5233,-9.2377 3.3533,-18.6133 5.0651,-27.8527 0.5897,-3.1861 1.187,-6.3754 1.7515,-9.5628 0.0732,-0.4307 0.216,-0.7385 0.504,-1.066 0.2939,-0.3061 0.5691,-0.4564 0.9375,-0.514 5.9423,-0.4914 10.1863,-0.2317 16.3281,-2.17 0.9991,-0.3657 2.0185,-1.3435 2.8313,-2.1414 1.106,-1.1064 2.1265,-2.2664 3.1913,-3.4208 -0.1367,0.1609 -0.209,0.3122 -0.2483,0.5205 -0.0303,0.2071 -0.0098,0.3619 0.071,0.53 0.0899,0.1641 0.1956,0.2535 0.3631,0.3066 0.1692,0.0427 0.3106,0.0245 0.4855,-0.062 0,0 -1.5975,0.7681 -2.37,1.1045 -6.2172,2.7044 -11.4116,3.1562 -17.6459,3.4113 -2.1114,0.0838 -4.2203,0.1453 -6.3299,0.2135 -0.0831,0.0014 -0.1427,-0.0195 -0.205,-0.0717 -0.06,-0.0563 -0.0911,-0.1163 -0.1078,-0.207 -0.013,-0.0922 -0.004,-0.1667 0.0315,-0.2602 0.006,-0.049 0.1165,-0.1882 0.1586,-0.2122 2.9783,-2.2244 5.8915,-4.3295 8.9596,-6.3564 0.9404,-0.6178 1.886,-1.222 2.838,-1.8092 1.5066,-0.9278 3.0235,-1.8042 4.5525,-2.6632 0.0773,-0.0449 1.2131,-0.6833 1.1903,-0.7769 -0.3234,-0.1766 -3.9786,1.6222 -4.3974,1.8319 -4.8578,2.4895 -9.1452,5.3635 -13.7191,8.619 -0.3307,0.2661 -0.5346,0.5386 -0.7089,0.9497 -0.1579,0.4156 -0.1982,0.7493 -0.1403,1.1592 0.0752,0.4039 0.2143,0.6692 0.4817,0.9198 0.2793,0.2335 0.5432,0.3253 0.9151,0.3183 0.001,0.0008 2.7684,-0.0473 3.0366,-0.0523 9.4172,-0.1931 14.4346,-0.1845 23.8312,-4.7566 -0.4895,0.2408 -0.8891,0.2891 -1.3616,0.1694 -0.4691,-0.1499 -0.7659,-0.4011 -1.0184,-0.8612 -0.2279,-0.4757 -0.2862,-0.9087 -0.1997,-1.4951 0.1112,-0.5847 0.3152,-1.0099 0.6997,-1.4611 0.0014,-0.0031 -0.3915,0.4354 -0.5345,0.5962 -0.8498,0.9564 -1.6812,1.9016 -2.5708,2.8105 -0.5551,0.5562 -1.5915,1.5757 -2.2741,1.8316 -5.9284,1.9696 -10.2932,1.7919 -16.0802,2.38 -0.6278,0.0981 -1.0944,0.3527 -1.5951,0.8744 -0.4772,0.5438 -0.7255,1.0651 -0.8499,1.7811 -1.9854,12.4717 -4.5354,24.9774 -6.4802,37.4453 -0.9326,6.387 -1.8412,12.778 -2.7505,19.1652 -0.5186,3.4356 -1.1954,6.1771 -2.4162,9.5015 -1.1677,3.0293 -2.3139,5.3287 -4.1078,8.0179 -0.2709,0.4102 -0.4264,0.7598 -0.5508,1.2351 -0.1116,0.4789 -0.1337,0.8491 -0.077,1.3091 0.0684,0.4549 0.188,0.7796 0.4145,1.1365 0.236,0.3432 0.4673,0.5539 0.8175,0.7406 6.6524,3.505 12.0436,6.9918 19.2792,9.3889 5.4285,1.6482 10.676,2.4667 16.3747,3.1594 17.2424,1.7683 28.7078,0.2758 46.2576,-2.5347 7.5107,-1.3763 14.4089,-4.2559 21.5837,-7.9814 7.5701,-4.1237 14.2729,-8.5233 20.4572,-15.4385 5.2659,-6.3564 9.8272,-13.1737 14.1274,-20.3473 -0.1918,0.303 -0.3846,0.6052 -0.5784,0.9068z"/>
     <path id="_190339944" class="fil2 str1" d="M43.508 174.511c-0.6997,0.5121 -1.2926,0.888 -2.0789,1.1159 -0.7413,0.1719 -1.3023,0.0744 -1.9966,-0.0674 -0.7074,-0.152 -1.3276,-0.2577 -1.9902,-0.5557 -0.3155,-0.1551 -0.548,-0.3095 -0.7985,-0.57 -0.2509,-0.2804 -0.3919,-0.5332 -0.5198,-0.9181 -0.2282,-0.785 -0.244,-1.4744 -0.1428,-2.3457 0.0656,-0.542 0.1804,-1.189 0.3971,-1.7095 0.1438,-0.371 0.2945,-0.6646 0.5689,-0.9424 0.2226,-0.2132 0.4071,-0.3091 0.6745,-0.3781 0.7158,-0.1563 1.5836,0.0607 2.2783,0.1569 0.337,0.0859 0.6294,0.1891 0.9412,0.3386 0.0861,0.0383 0.1759,0.0726 0.2628,0.1102 0.3304,0.1386 0.6284,0.2296 0.9845,0.2954 -0.7321,0.1368 1.8265,0.5546 1.977,0.5672 0.6303,0.0343 1.249,0.0446 1.8851,0.0401 0.5408,0.1049 1.0124,-0.0513 1.5811,-0.1915 0.2478,-0.0355 1.1684,-0.1854 1.2711,-0.5731 0.0951,-0.7816 0.0638,-1.152 -0.2743,-1.7973 -0.3046,-0.5416 -0.6673,-0.8505 -1.1638,-1.1527 1.0607,0.1258 -1.7062,-0.9998 -1.9335,-1.0579 -0.7399,-0.1785 -1.4699,-0.2882 -2.2323,-0.3817 -0.7022,-0.0646 -0.7598,0.0077 -1.4045,0.0614 -0.0182,0.003 -0.0537,0.0015 -0.0737,0.0021 -0.4191,0.013 -0.8906,0.0436 -1.3131,0.1195 -1.2043,0.1567 -2.0711,0.2459 -3.251,0.8564 -0.6978,0.3695 -1.1714,0.7749 -1.6748,1.4671 -0.456,0.6827 -0.6867,1.2597 -0.8782,2.0509 -0.1321,0.7807 -0.1958,1.4931 -0.2056,2.2673 0.036,1.1179 0.1655,1.9591 0.5778,2.9173 0.2435,0.5164 0.4906,0.8493 0.8992,1.194 0.3636,0.2903 0.6836,0.4528 1.1181,0.6026 0.7559,0.2373 1.4201,0.2851 2.2094,0.3679 0.8128,0.0988 1.4265,0.1375 2.2746,-0.12 0.7985,-0.2829 1.402,-0.7031 2.1175,-1.2435 0.1,-0.0777 0.1994,-0.1561 0.2985,-0.2355 2.0664,-1.735 3.3947,-3.3264 4.8355,-5.7454 -0.0014,0.001 -0.002,0.0022 -0.0026,0.0039 -0.0004,0.0002 -0.001,0.0044 -0.0015,0.0051 -0.0009,0.0014 0.0012,0.0038 0.0011,0.005 0,0.0008 0.0029,0.0038 0.0033,0.0046 -0.0018,0.0003 -0.0041,-0.0026 -0.0048,-0.0029 -0.0011,-0.0005 -0.0028,-0.0045 -0.0035,-0.0054 -0.0011,-0.0015 -0.0002,-0.0054 -0.0004,-0.0069 -0.0002,-0.0013 0.0023,-0.0081 0.0023,-0.0081 -1.5417,2.2915 -2.9239,3.7679 -5.0335,5.3293 -0.0186,0.02 -0.1494,0.1077 -0.181,0.1301z"/>
     <path id="_43884328" class="fil2 str1" d="M36.8386 170.886c0.176,-0.2916 0.5768,-0.9717 0.8525,-1.1234 0.074,-0.0741 0.3044,-0.2871 0.3507,-0.1113 0.0053,0.1135 -0.0584,0.1683 -0.1052,0.2531 0.5905,-0.1106 1.1783,-0.147 1.766,-0.1993 0.3103,-0.0597 0.6125,-0.1062 0.9225,-0.1453 0.4928,-0.0282 0.9256,-0.0895 1.4208,-0.2156 -0.5703,-0.0765 -0.4954,-0.0458 -0.194,-0.0639 1.1342,-0.1686 2.8291,-1.6563 2.3053,-2.2241 -0.4077,-0.1476 -1.5471,0.4049 -1.9912,0.5955 0.0504,0.2095 -0.9221,0.6738 -1.1108,0.7673 -0.0595,0.0291 -0.1254,0.054 -0.1828,0.0833 -0.3585,0.1895 -0.7123,0.3621 -1.0757,0.5316 -0.7067,0.1685 -1.2289,0.2916 -1.9238,0.5134 -0.0342,0.0054 0.0098,-0.0759 -0.0371,-0.1093 -0.1191,-0.0649 -0.3159,0.1698 -0.3939,0.2674 -0.1577,0.0584 -0.5581,0.8107 -0.6438,0.9814 -0.0237,0.0402 -0.2456,0.4284 -0.2468,0.4293 -0.4791,0.639 -0.9472,1.2535 -1.5115,1.7982 0.6318,-0.5266 1.1413,-1.1541 1.6685,-1.8129 0.0432,-0.072 0.0865,-0.1437 0.1303,-0.2154z"/>
     <path id="_50094664" class="fil2 str1" d="M36.8386 170.886c0.0056,0.0138 0.0112,0.0275 0.017,0.0413 0.1756,-0.2963 0.5869,-1.0052 0.866,-1.1577 0.074,-0.0735 0.3026,-0.2809 0.3404,-0.0974 -0.0001,0.1145 -0.0635,0.1767 -0.1199,0.2634 0,0 0.207,-0.033 0.2325,-0.0374 0.4993,-0.0872 1.0249,-0.1154 1.5233,-0.1597 0.3087,-0.0599 0.6108,-0.1057 0.9191,-0.1439 0.493,-0.027 0.9276,-0.0872 1.4233,-0.2105 -0.6062,-0.0817 -0.4782,-0.0476 -0.177,-0.065 0.5506,-0.0384 1.1022,-0.3232 1.5708,-0.7326 0.2997,-0.2696 0.7165,-0.7414 0.8388,-1.1547 0.0231,-0.0783 0.0367,-0.1611 0.0264,-0.2377 -0.0181,-0.0786 -0.0571,-0.1318 -0.1184,-0.1682 -0.0243,-0.0154 -0.0518,-0.0217 -0.0798,-0.028 -0.0871,-0.0194 -0.1814,-0.0124 -0.2732,-0.0009 -0.2107,0.035 -0.4363,0.1154 -0.6446,0.1891 -0.3359,0.1283 -0.6675,0.2709 -1.0005,0.4145 0.0215,0.2419 -0.9614,0.6937 -1.165,0.7943 -0.0433,0.0209 -0.0932,0.0403 -0.1348,0.062 -0.3607,0.1947 -0.7154,0.3703 -1.0816,0.5432 -0.6455,0.1562 -1.1713,0.2678 -1.8118,0.4801 -0.03,0.0097 -0.0959,0.0349 -0.1217,0.039 -0.0388,0.006 -0.0002,-0.0697 -0.0509,-0.1007 -0.1272,-0.0559 -0.3221,0.1762 -0.405,0.28 -0.157,0.0606 -0.5485,0.7859 -0.6348,0.9557 0.0069,0.0109 0.0139,0.0218 0.0209,0.0326 -0.0053,-0.0136 -0.0104,-0.0273 -0.0156,-0.0409 -0.0269,0.0446 -0.2749,0.4735 -0.2762,0.4745 -0.4676,0.6172 -0.9255,1.213 -1.4791,1.7328 0.0078,0.0379 0.016,0.0757 0.0244,0.1132 0.6461,-0.5357 1.1679,-1.1934 1.7025,-1.8693 0.0191,-0.0416 0.0752,-0.1263 0.1015,-0.1698 -0.0058,-0.0138 -0.0114,-0.0275 -0.017,-0.0413 -0.0056,-0.0137 -0.0112,-0.0275 -0.0167,-0.0413 -0.0147,0.0235 -0.1596,0.2607 -0.1599,0.261 -0.5146,0.6356 -1.0156,1.2482 -1.6348,1.7475 0.0041,0.0204 0.0083,0.0408 0.0126,0.0611 0.0052,0.0169 0.0106,0.0338 0.016,0.0506 0.5761,-0.555 1.053,-1.1966 1.537,-1.8527 0.0732,-0.1318 0.1466,-0.2624 0.2222,-0.3926 0.1388,-0.274 0.4233,-0.833 0.6584,-1.0071 0.0735,-0.091 0.2733,-0.3277 0.3835,-0.2527 0.0456,0.0528 -0.0103,0.1121 0.0215,0.1187 0.0003,0.0002 0.1066,-0.0342 0.1178,-0.0378 0.6368,-0.2119 1.1524,-0.3157 1.7948,-0.4663 0.3606,-0.1661 0.7136,-0.3351 1.0694,-0.5217 0.078,-0.0321 0.1544,-0.0671 0.2311,-0.1049 0.4192,-0.2091 0.7897,-0.4459 1.1824,-0.7292 -0.1632,-0.0652 0.2572,-0.1808 0.4123,-0.2463 0.28,-0.1138 0.5656,-0.2349 0.8489,-0.3244 0.1076,-0.0321 0.2157,-0.061 0.324,-0.0826 0.07,-0.0107 0.1556,-0.0155 0.222,-0.0006 0.0158,0.0035 0.0331,0.0068 0.0468,0.0155 0.0414,0.0201 0.0647,0.0586 0.0694,0.1119 0.0138,0.0677 0,0.1481 -0.021,0.2187 -0.12,0.4035 -0.531,0.8667 -0.8259,1.126 -0.4446,0.3911 -0.9872,0.6796 -1.5115,0.7093 -0.0639,0.0038 -0.1347,0.0101 -0.1976,0.0098 0.7935,0.2001 -0.802,0.2563 -1.0076,0.2684 -0.3023,0.0358 -0.6236,0.0819 -0.9262,0.1456 -0.5017,0.0452 -1.0298,0.0737 -1.5324,0.1612 -0.0814,0.0142 -0.1628,0.024 -0.2442,0.0408 -0.0011,0.0001 0.109,-0.1582 0.0899,-0.2423 -0.0554,-0.1675 -0.2866,0.0503 -0.3613,0.1259 -0.1763,0.0252 -0.7298,0.9116 -0.8376,1.0892 0.0055,0.0138 0.0111,0.0276 0.0167,0.0413z"/>
     <path id="_50785912" class="fil2 str1" d="M38.8034 177.838c-0.9483,0.359 -1.7673,0.3617 -2.6674,0.158 -0.6369,-0.1706 -1.0883,-0.4049 -1.6012,-0.8288 -0.5983,-0.5293 -0.95,-1.0575 -1.2674,-1.8588 -0.4442,-1.2769 -0.5333,-2.3898 -0.3397,-3.8512 0.1267,-0.9284 0.3136,-1.7527 0.7152,-2.6267 0.156,-0.3801 0.3123,-0.6975 0.5229,-1.0493 0.2989,-0.4722 0.6009,-0.783 1.0404,-1.0658 1.2652,-0.7209 2.3511,-0.2156 1.8044,0.3639 -0.2201,0.1773 -0.664,0.37 -0.9341,0.5373 -0.6226,0.3837 -1.0302,0.7937 -1.4795,1.4335 -0.1763,0.1575 -0.4018,0.4808 -0.5223,0.6963 -0.3037,0.5533 -0.4687,1.0531 -0.6101,1.6604 -0.3626,1.3816 -0.3096,2.4989 0.0756,3.7303 0.2842,0.7748 0.6117,1.2832 1.1757,1.7954 0.4892,0.4139 0.9202,0.6397 1.5303,0.8112 0.8346,0.2034 1.535,0.2043 2.423,0.0098 0.0608,-0.0202 0.1211,-0.042 0.1814,-0.0659 0.7299,-0.1423 1.6445,-0.5611 2.0467,-1.3968 -0.4351,0.9781 -1.2469,1.3274 -2.087,1.5442 -0.0022,0.001 -0.0046,0.002 -0.0069,0.003z"/>
     <path id="_50785888" class="fil2 str1" d="M38.8034 177.838c-0.0054,-0.0111 -0.0109,-0.0222 -0.0164,-0.0332 -0.9403,0.3499 -1.7424,0.3561 -2.6356,0.1559 -0.6343,-0.1686 -1.0838,-0.4006 -1.5947,-0.822 -0.596,-0.526 -0.9453,-1.0506 -1.2614,-1.8478 -0.0279,-0.0426 -0.1111,-0.32 -0.1319,-0.3889 -0.3257,-1.167 -0.3792,-2.1545 -0.2059,-3.4476 0.1269,-0.9253 0.3129,-1.7466 0.7152,-2.617 0.1512,-0.3673 0.3029,-0.6754 0.5054,-1.0161 0.2157,-0.3595 0.5089,-0.6743 0.8261,-0.9114 0.0783,-0.0591 0.1534,-0.1099 0.2353,-0.1601 0.4122,-0.2531 0.7657,-0.3774 1.1997,-0.3549 0.218,0.0172 0.5716,0.1254 0.6436,0.3817 0.0144,0.0514 0.0206,0.1011 -0.0039,0.1574 -0.0166,0.0548 -0.0616,0.0986 -0.1008,0.1345 -0.0249,0.0211 -0.0484,0.0405 -0.0751,0.0582 -0.1806,0.1193 -0.4169,0.216 -0.6087,0.3207 -0.0342,0.0189 -0.2313,0.1405 -0.2424,0.1437 -0.4082,0.2504 -0.698,0.4968 -1.0401,0.8677 -0.1694,0.1895 -0.3096,0.3694 -0.4555,0.582 -0.1657,0.1484 -0.3797,0.4518 -0.4954,0.6531 -0.3158,0.5697 -0.4858,1.0895 -0.6301,1.716 -0.3588,1.3889 -0.3063,2.5074 0.0813,3.7449 0.0836,0.2364 0.1728,0.4431 0.2857,0.6592 0.2593,0.4756 0.5139,0.8023 0.8968,1.1461 0.4906,0.4155 0.9253,0.644 1.5372,0.8165 0.843,0.2062 1.5519,0.2076 2.449,0.0091 0.0004,-0.0016 0.0008,-0.0032 0.0012,-0.0048 0.0022,0.0004 0.0043,0.0007 0.0064,0.0011 0.0509,-0.0168 0.1007,-0.0348 0.1512,-0.0542 0.7512,-0.1392 1.6971,-0.5701 2.1078,-1.4332 -0.0167,-0.0011 -0.0335,-0.0025 -0.0501,-0.0038 -0.0168,0.0001 -0.0336,0.0002 -0.0503,0.0002 -0.4263,0.9453 -1.2079,1.2841 -2.0233,1.4948 -0.0139,0.0064 -0.0288,0.0121 -0.0428,0.0179 0.0075,0.0114 0.015,0.0228 0.0225,0.0343 0.0014,0.0023 0.0028,0.0047 0.0043,0.0069 0.0031,0.0048 0.0184,0.0184 0.0234,0.0233 0.785,-0.176 1.7513,-0.6221 2.1163,-1.5736 -0.0311,-0.0026 -0.062,-0.0057 -0.0928,-0.0091 -0.4772,0.8605 -1.2036,1.1651 -1.9913,1.3556 -0.0664,0.0299 -0.1505,0.0564 -0.2189,0.078 0.0083,0.0114 0.0166,0.0229 0.0248,0.0344 -0.0061,-0.0111 -0.0122,-0.0222 -0.0183,-0.0333 -0.8774,0.1885 -1.5645,0.1889 -2.3899,-0.0105 -0.6071,-0.1694 -1.037,-0.3936 -1.5239,-0.8047 -0.3789,-0.3391 -0.6311,-0.6627 -0.8875,-1.1326 -0.1116,-0.214 -0.1997,-0.4179 -0.2824,-0.6521 -0.3838,-1.2267 -0.436,-2.3405 -0.0718,-3.7165 0.1384,-0.5895 0.299,-1.0761 0.5913,-1.615 0.1631,-0.2861 0.3243,-0.5022 0.5502,-0.7293 0.1778,-0.2911 0.5459,-0.6917 0.7922,-0.9144 0.2271,-0.2004 0.4272,-0.3466 0.6763,-0.4985 0.0131,-0.0131 0.1314,-0.0816 0.1556,-0.096 0.219,-0.1288 0.4501,-0.2306 0.6649,-0.3664 0.0382,-0.0253 0.0751,-0.0536 0.1105,-0.0846 0.0644,-0.0544 0.1201,-0.1157 0.1585,-0.1961 0.0214,-0.0655 0.0268,-0.1271 0.0124,-0.1889 -0.0389,-0.1678 -0.1856,-0.28 -0.3191,-0.3388 -0.3669,-0.1845 -0.8678,-0.1093 -1.2764,0.0681 -0.1562,0.0697 -0.2873,0.1428 -0.4349,0.2412 -0.4265,0.2829 -0.7176,0.5849 -1.0127,1.0434 -0.223,0.368 -0.3856,0.6963 -0.5493,1.0954 -0.4027,0.8789 -0.5893,1.7028 -0.7166,2.6361 -0.1738,1.3023 -0.1191,2.2977 0.2088,3.473 0.0411,0.1343 0.0846,0.2626 0.1331,0.3924 0.3193,0.8062 0.6721,1.3359 1.2735,1.8691 0.515,0.4262 0.9686,0.6621 1.6079,0.8346 0.9013,0.2055 1.7275,0.2056 2.6778,-0.1541 0.0105,-0.002 0.0211,-0.0045 0.0317,-0.0068 -0.0045,-0.0045 -0.0196,-0.021 -0.0235,-0.0233 0,-0.0001 -0.0038,-0.0063 -0.0042,-0.0069z"/>
     <path id="_188206488" class="fil2 str1" d="M64.1707 122.389c-0.4754,2.4058 -0.9487,4.8134 -1.3226,7.2247 -0.8975,6.0962 -2.0906,12.1469 -3.0159,18.242 -0.4489,3.0813 -0.8237,6.2102 -1.8761,9.2242 -0.9271,2.4576 -1.8517,4.412 -3.2025,6.6611 0.0786,-0.1258 0.1619,-0.2005 0.2845,-0.2548 0.124,-0.0473 0.2212,-0.0468 0.3317,0.0012 0.107,0.055 0.1691,0.1311 0.2116,0.2571 0.0363,0.13 0.0319,0.2423 -0.0147,0.3836 0.5382,-1.48 0.9607,-2.8679 1.3534,-4.3821 0.4801,-1.9012 0.8325,-3.6844 1.1334,-5.6009 0.9465,-6.1096 1.9101,-12.2141 2.9261,-18.3218 0.7275,-3.6112 1.4692,-7.2197 2.2908,-10.8215 1.533,-6.9261 4.7454,-22.9878 4.4478,-29.6395 0.0295,-0.9917 0.0227,-1.9835 0.0164,-2.9693 -0.0166,0.0825 -0.0395,0.147 -0.0795,0.2224 -0.0404,0.0728 -0.079,0.1239 -0.1363,0.1807 -0.0582,0.055 -0.1075,0.0889 -0.1752,0.1212 -0.0248,0.0171 -0.1744,0.056 -0.1953,0.0466 0.0136,-0.0025 2.8854,-0.5774 2.6275,-0.8599 -1.0993,-0.6598 -0.854,-0.8588 -2.4165,-1.1452 -0.1673,0.0079 -0.2977,0.0402 -0.4617,0.1137 -0.1597,0.077 -0.276,0.1584 -0.4125,0.2888 -0.135,0.1352 -0.2245,0.255 -0.3192,0.4276 -0.0938,0.18 -0.1458,0.3287 -0.1843,0.5251 -0.3856,1.0025 -0.5851,2.024 -0.8736,3.0485 -2.0717,5.3571 -4.8295,25.1883 -5.6575,30.9881 -0.4345,3.1596 -0.8712,6.3187 -1.142,9.4727 -0.6483,6.1073 -1.3128,12.2129 -2.0001,18.3218 -0.2149,1.8393 -0.484,3.555 -0.8729,5.3891 -0.3223,1.45 -0.6777,2.7821 -1.1409,4.2065 -0.0893,0.2702 -0.0979,0.4857 -0.0283,0.7345 0.0814,0.2425 0.201,0.3866 0.4064,0.4925 0.2113,0.0917 0.3973,0.0924 0.6344,0.002 0.2354,-0.1045 0.3943,-0.2472 0.545,-0.4888 1.3382,-2.4011 2.2519,-4.483 3.1529,-7.0756 1.0062,-3.1763 1.316,-6.3287 1.714,-9.5501 0.781,-6.0894 1.8648,-12.1484 2.6877,-18.2415 0.2788,-2.2198 0.7128,-4.5001 1.1283,-6.7169 1.5189,-8.0788 4.9509,-23.1537 5.2447,-30.6099 0,0 0.0003,0.0037 0.0006,0.0057 0.0001,0.0015 0.0016,0.0031 0.0021,0.0041 0.001,0.0022 0.0053,0.0038 0.0075,0.0038 -0.0051,0.0006 -0.0053,-0.0019 -0.0081,-0.0029 -0.001,-0.0004 -0.0023,-0.0035 -0.0028,-0.0042 -0.0005,-0.0009 -0.0005,-0.0048 -0.001,-0.0051 -0.5371,7.7415 -3.9372,21.8844 -5.6073,30.1007z"/>
     <path id="_188206464" class="fil2 str1" d="M58.1643 157.989c0.4387,-1.3 0.7728,-2.518 1.079,-3.844 1.4168,-6.1694 2.4022,-12.1247 3.2618,-18.3218 0.742,-5.5543 1.5122,-11.1053 2.1841,-16.6592 0.0074,-0.0706 0.6166,-13.7465 -0.7741,-8.6316 -0.7545,4.1831 -0.8388,10.6636 -1.0023,14.9752 -0.1327,3.3803 -0.4322,6.9102 -0.7914,10.3156 -0.7659,6.2045 -1.7765,12.1406 -3.104,18.3218 -0.188,0.9831 -0.4781,2.0778 -0.7582,3.0511 -0.284,0.9014 -0.5799,1.7306 -0.9458,2.6059 -0.6236,1.4945 -1.3084,2.9184 -2.3447,4.1437 -0.0266,0.0535 -0.0337,0.0991 -0.0275,0.1543 0.0105,0.0616 0.0336,0.0996 0.0771,0.1329 0.0499,0.0334 0.0978,0.0403 0.16,0.0266 0.0692,-0.0198 0.1179,-0.0553 0.1675,-0.1195 0.0028,0.0003 0.2912,-0.1956 0.3243,-0.2161 -0.0436,0.0205 -0.3406,0.1749 -0.3564,0.1947 -0.0438,0.0517 -0.0854,0.0802 -0.1441,0.0928 -0.0506,0.0078 -0.0882,-0.0002 -0.1268,-0.0308 -0.0312,-0.0284 -0.0476,-0.0598 -0.0516,-0.1083 -0.0074,-0.0168 0.0138,-0.0957 0.029,-0.1109 1.08,-1.1632 1.8067,-2.6617 2.436,-4.139 0.2619,-0.6123 0.4892,-1.2059 0.7081,-1.8334z"/>
     <path id="_188206272" class="fil2 str1" d="M58.1643 157.989c-0.0043,0.055 -0.0088,0.1099 -0.0132,0.1648 0.4613,-1.3566 0.8093,-2.6238 1.1273,-4.0088 1.324,-5.7894 2.2703,-11.3853 3.1003,-17.2008 0.0524,-0.3735 0.105,-0.7475 0.1548,-1.121 0.7472,-5.5943 1.5241,-11.1854 2.2056,-16.7791 0.2768,-2.3191 0.4375,-4.78 0.311,-7.0461 -0.0244,-0.3809 -0.1913,-2.6604 -0.6377,-2.68 -0.1041,-0.0046 -0.1896,0.1319 -0.2393,0.2273 -0.1259,0.2792 -0.2084,0.6122 -0.2732,0.9061 -0.0358,0.1592 -0.0635,0.319 -0.0911,0.4787 -0.0859,0.4972 -0.1494,0.995 -0.208,1.4922 -0.1175,1.0642 -0.1972,2.1306 -0.2732,3.1919 -0.2258,3.3714 -0.3335,6.7174 -0.4627,10.076 -0.1268,3.3191 -0.4171,6.7888 -0.7693,10.133 -0.1222,1.1595 -0.2943,2.3576 -0.4573,3.5197 -0.7167,5.0002 -1.5767,9.8217 -2.6552,14.8021 -0.1804,0.94 -0.4578,1.9859 -0.7235,2.9171 -0.0001,0.0447 -0.0002,0.0893 -0.0004,0.134 0.0037,-0.0556 0.0073,-0.1112 0.0108,-0.1668 -0.2991,0.9593 -0.6109,1.8364 -1.0035,2.766 -0.619,1.468 -1.3331,2.9525 -2.39,4.1223 -0.0371,0.0831 -0.0461,0.1536 -0.0329,0.2367 0.0185,0.0892 0.0556,0.1456 0.1216,0.1915 0.0745,0.0454 0.1438,0.0531 0.2342,0.03 0.0983,-0.0313 0.1661,-0.0833 0.2352,-0.176 0.0012,0.0001 0.1111,-0.0692 0.1231,-0.0764 0.0698,-0.1234 0.139,-0.2473 0.2074,-0.3717 -0.0747,0.0339 -0.507,0.2641 -0.5402,0.3071 -0.024,0.0231 -0.0474,0.0354 -0.0765,0.0356 -0.0228,-0.0013 -0.0382,-0.0087 -0.0518,-0.0279 -0.0087,-0.0148 -0.0119,-0.0299 -0.006,-0.0494 -0.0001,-0.0102 0.0156,-0.0233 0.0237,-0.0271 1.0558,-1.2007 1.7639,-2.6722 2.39,-4.1607 0.2366,-0.5585 0.4457,-1.1045 0.6468,-1.6755 0.0045,-0.055 0.0089,-0.1098 0.0132,-0.1648 0.0044,-0.0551 0.0087,-0.1101 0.013,-0.1651 -0.2368,0.6838 -0.4818,1.3257 -0.7699,1.9915 -0.6259,1.4523 -1.3802,3.0198 -2.4929,4.1138 -0.0349,0.0713 -0.045,0.1324 -0.0362,0.2059 0.0136,0.0818 0.045,0.133 0.1026,0.1774 0.0671,0.0447 0.13,0.0543 0.2136,0.0361 0.0931,-0.0262 0.1578,-0.0732 0.2251,-0.1589 0.0001,0 0.1247,-0.0603 0.1381,-0.0663 0.0377,-0.0664 0.0752,-0.1328 0.1124,-0.1995 0.0307,-0.0581 0.0613,-0.1162 0.0917,-0.1744 -0.0633,0.0385 -0.4704,0.3055 -0.4941,0.338 -0.0324,0.0383 -0.0649,0.0597 -0.1081,0.0683 -0.0377,0.0054 -0.0653,-0.0013 -0.0935,-0.0245 -0.0228,-0.0217 -0.0339,-0.0444 -0.0361,-0.0805 -0.0051,-0.0125 0.0116,-0.0685 0.0231,-0.0794 1.0157,-1.2518 1.6862,-2.6608 2.3049,-4.163 0.3434,-0.8311 0.626,-1.6246 0.8963,-2.4788 0.309,-1.0706 0.564,-2.1023 0.7968,-3.1846 1.0721,-4.9794 1.9255,-9.8038 2.6414,-14.8021 0.1632,-1.1638 0.3334,-2.3581 0.458,-3.5197 0.3713,-3.4607 0.6804,-7.0645 0.8145,-10.4987 0.1027,-2.5114 0.1841,-5.0151 0.3188,-7.5313 0.0758,-1.3388 0.1535,-2.6798 0.2628,-4.0218 0.0461,-0.543 0.0961,-1.0864 0.1529,-1.63 0.0452,-0.4005 0.0981,-0.8082 0.1673,-1.2087 0.0161,-0.093 0.0316,-0.1869 0.0525,-0.2796 0.0342,-0.1646 0.0906,-0.4044 0.1747,-0.5535 0.043,-0.0922 0.1225,-0.2342 0.2231,-0.2297 0.4384,0.0193 0.5956,2.2813 0.6171,2.6528 0.1258,2.1664 -0.0214,4.5426 -0.2908,6.7613 -0.668,5.5142 -1.4334,11.0247 -2.1682,16.5392 -0.0497,0.3735 -0.1024,0.7475 -0.1548,1.121 -0.8307,5.8182 -1.7747,11.41 -3.1132,17.2008 -0.2941,1.2673 -0.6145,2.4354 -1.0299,3.6789 -0.0043,0.055 -0.0086,0.11 -0.013,0.1651z"/>
     <path id="_188206200" class="fil2 str1" d="M63.0046 140.628c-0.1484,2.4089 -0.3586,4.8128 -0.5653,7.2262 -0.3122,3.494 -0.5959,6.6217 -1.7192,10.0833 -0.9882,2.7724 -1.9902,4.9414 -3.4985,7.4679 -0.4362,0.6969 -0.8998,1.1109 -1.5796,1.4105 -0.6873,0.2603 -1.2252,0.2564 -1.8365,-0.0113 -0.5913,-0.3072 -0.9343,-0.7253 -1.1679,-1.4246 -0.1991,-0.7182 -0.1732,-1.3397 0.0856,-2.1191 0.4839,-1.3241 0.8756,-2.5837 1.2419,-3.9367 0.4653,-1.7499 0.8247,-3.4129 1.1425,-5.1791 0.3082,-1.7393 0.6271,-3.4755 0.9577,-5.2136 0.1024,-0.4872 2.8965,-10.6611 2.7529,-6.7388 -0.4318,3.4181 -2.0389,8.3986 -2.9349,11.9524 -0.0021,0.0103 -0.0052,0.0215 -0.0078,0.0318 -0.4367,1.7649 -0.897,3.4691 -1.436,5.2152 -0.4196,1.3598 -0.8596,2.642 -1.3803,3.9726 -0.2231,0.6696 -0.2451,1.2051 -0.0746,1.8225 0.2011,0.6038 0.4968,0.9635 1.0069,1.2286 0.5251,0.23 0.9893,0.2334 1.5797,0.01 0.587,-0.2579 0.9866,-0.6152 1.3632,-1.2166 1.5396,-2.4751 2.5435,-4.6035 3.5407,-7.3478 1.1316,-3.4152 1.4167,-6.5513 1.746,-10.007 0.2,-2.1585 0.4115,-4.3174 0.6069,-6.4756 0.1419,-2.0717 0.3725,-5.6987 -0.1269,-7.5777 0.5643,1.5064 0.3985,5.0851 0.3035,6.8269z"/>
     <path id="_189121248" class="fil2 str1" d="M63.0046 140.628c-0.0154,0.0415 -0.0307,0.083 -0.0461,0.1246 -0.1463,2.3675 -0.3507,4.7298 -0.5524,7.1016 -0.3102,3.4906 -0.5923,6.6162 -1.7137,10.0747 -0.5044,1.4312 -1.0295,2.718 -1.6779,4.094 -0.5679,1.1816 -1.1419,2.2474 -1.8167,3.3665 -0.431,0.6889 -0.8897,1.0984 -1.5616,1.3945 -0.6797,0.2573 -1.2111,0.2535 -1.8157,-0.0112 -0.5847,-0.3038 -0.9236,-0.7169 -1.1547,-1.4084 -0.1967,-0.7108 -0.1713,-1.3238 0.0848,-2.095 0.4844,-1.326 0.8761,-2.5861 1.2432,-3.9409 0.4658,-1.7519 0.8255,-3.4152 1.1441,-5.1833 0.3053,-1.7179 0.6204,-3.4325 0.9475,-5.1492 0.1653,-0.8696 0.3828,-1.7422 0.6231,-2.6019 0.3101,-1.1223 0.6851,-2.2863 1.1389,-3.3681 0.0881,-0.2102 0.5836,-1.3778 0.8306,-1.3778 0.0798,0 0.0974,0.0831 0.1067,0.1601 0.0265,0.1281 0.0067,0.3427 -0.0049,0.4806 -0.0104,0.1071 -0.0216,0.2132 -0.0366,0.3204 -0.106,0.756 -0.2903,1.5577 -0.4695,2.3086 -0.3696,1.5554 -0.79,3.1102 -1.2154,4.6566 -0.4059,1.4762 -0.8199,2.9583 -1.1851,4.4411 -0.0103,0.0421 -0.0231,0.0878 -0.0318,0.1296 -0.4341,1.7753 -0.8929,3.4864 -1.4334,5.2425 -0.418,1.3584 -0.857,2.6395 -1.377,3.9685 -0.2261,0.6794 -0.2484,1.2208 -0.0755,1.8473 0.2038,0.6116 0.5036,0.9768 1.0206,1.2452 0.532,0.2335 1.0029,0.2362 1.6011,0.0102 0.5952,-0.2617 0.9997,-0.6236 1.3816,-1.2331 1.2543,-2.0111 2.1371,-3.7775 3.0282,-5.9821 0.1806,-0.4571 0.3509,-0.9114 0.5155,-1.3737 1.1326,-3.4186 1.4187,-6.5564 1.7489,-10.0155 0.2033,-2.1895 0.4187,-4.3795 0.6173,-6.5687 -0.0014,0 -0.0028,0 -0.0042,-0.0001 0.0018,-0.0105 0.0035,-0.0209 0.0053,-0.0314 0.1478,-2.1229 0.3763,-5.7486 -0.1238,-7.6816 -0.015,0.0762 -0.0299,0.1524 -0.0449,0.2285 -0.0135,0.076 -0.0271,0.1521 -0.0408,0.2281 0.563,1.468 0.3897,5.0507 0.2929,6.7548 0.0172,-0.052 0.0342,-0.104 0.0514,-0.156 0.014,-0.0416 0.028,-0.0832 0.042,-0.1249 0.0999,-1.7583 0.2742,-5.4121 -0.3006,-6.9305 -0.0281,0.1414 -0.0563,0.2827 -0.0846,0.424 0.484,1.9419 0.265,5.4177 0.1155,7.5379 0.017,-0.0519 0.0341,-0.1038 0.0511,-0.1557 -0.0152,0.0415 -0.0306,0.0829 -0.0458,0.1243 -0.1896,2.1085 -0.3722,4.2427 -0.5929,6.3513 -0.3275,3.4513 -0.6113,6.5878 -1.741,9.9987 -0.1641,0.4614 -0.3344,0.9151 -0.5144,1.3711 -0.8901,2.2017 -1.7705,3.9633 -3.0237,5.9712 -0.3715,0.5926 -0.766,0.9448 -1.3446,1.1992 -0.5842,0.2208 -1.0424,0.2171 -1.5616,-0.011 -0.5023,-0.2614 -0.7937,-0.6173 -0.9917,-1.2118 -0.1685,-0.6103 -0.1466,-1.1382 0.074,-1.8001 0.5213,-1.3308 0.9622,-2.6154 1.3824,-3.9756 0.5267,-1.7028 0.9793,-3.3678 1.4091,-5.0886 0.0072,-0.0289 0.032,-0.1438 0.0403,-0.1624 0.4935,-1.9549 1.046,-3.9058 1.5704,-5.8562 0.2765,-1.0246 0.548,-2.0524 0.7905,-3.0823 0.2035,-0.8602 0.3964,-1.7312 0.5225,-2.5974 0.0225,-0.1602 0.0408,-0.3206 0.0549,-0.4806 0.0223,-0.2397 0.0393,-0.506 0.0116,-0.7368 -0.0154,-0.0711 -0.0483,-0.1921 -0.1271,-0.1921 -0.1789,0 -0.4403,0.5208 -0.5151,0.6726 -0.4468,0.8534 -0.8276,1.9717 -1.1212,2.8851 -0.4284,1.3388 -0.787,2.7125 -1.0508,4.0777 -0.3353,1.7574 -0.6871,3.5526 -0.9755,5.31 -0.3177,1.7656 -0.6765,3.4258 -1.1416,5.1753 -0.3662,1.353 -0.7574,2.6094 -1.2408,3.9337 -0.2616,0.7876 -0.2872,1.4157 -0.0862,2.1414 0.2368,0.7089 0.5841,1.1308 1.1835,1.4417 0.6167,0.2696 1.1615,0.2728 1.8546,0.0102 0.6886,-0.3034 1.1568,-0.7225 1.5983,-1.4283 0.6756,-1.1204 1.2507,-2.1887 1.8192,-3.3715 0.6498,-1.3787 1.176,-2.6679 1.6816,-4.1019 1.1249,-3.4646 1.4095,-6.5943 1.7232,-10.0915 0.2112,-2.4552 0.4261,-4.9005 0.5765,-7.3511 -0.014,0.0417 -0.028,0.0833 -0.042,0.1249z"/>
    </g>
   </g>
   <path id="_188452048" class="fil3" d="M74.1109 181.745c-2.7517,-0.8191 -7.6212,-3.0219 -10.0135,-4.5551 -2.3925,-1.5331 -7.9426,-3.6238 -10.184,-4.9526 -2.365,2.7598 -5.0262,4.9064 -7.9835,6.4395 -2.9574,1.5332 -6.0142,3.053 -9.0431,2.4532 -5.1827,-1.0264 -6.9039,-2.96 -6.4326,-9.8123 0.34,-4.9425 5.6244,-8.8087 9.4599,-8.8929 1.9751,-0.0434 3.6283,0.18 5.5004,0.6899 1.6888,0.46 3.465,1.0988 5.3284,1.9166 0.6645,-1.5332 1.2157,-3.2198 1.6536,-5.0597 0.4377,-1.8398 0.7999,-3.7818 1.0866,-5.8262 0.8599,-6.1328 1.7162,-12.2401 2.569,-18.3218 0.8528,-6.0818 5.9623,-34.4304 6.8077,-40.4609 0.1433,-1.0221 0.277,-1.8108 0.4902,-2.7796 -0.4871,-0.0609 -5.5878,1.7271 -9.8726,-2.4017 -3.9303,-3.7873 -5.3516,-7.4323 -11.6827,-8.7655 2.4464,-1.2325 5.1835,-1.0859 7.2526,0.3428 3.3035,2.2811 4.2074,3.8374 6.59,6.5141 2.0116,2.2598 7.8796,1.0412 10.3382,-0.6028 4.1159,-2.752 9.607,-8.2649 17.1689,-12.4258 6.4691,-3.5598 13.7208,-4.7627 16.0151,-5.0006 3.5425,-0.3673 9.594,-0.4311 9.3471,2.2531 -0.5551,6.037 -8.2978,12.475 -11.2608,14.0457 -6.7776,3.5929 -7.4477,3.7811 -15.2088,4.693 10.2151,-6.2112 17.1742,-9.1514 20.1547,-12.078 2.9805,-2.9267 3.3826,-5.5359 3.3676,-5.5412 -4.0471,-1.4202 -10.3437,0.4092 -13.105,1.4082 -8.5688,3.1001 -16.8697,9.2166 -22.4794,13.552 12.5505,-0.5462 17.6972,-0.6825 26.601,-5.3709 -1.8792,2.0787 -4.627,5.5508 -6.6228,6.2885 -6.0193,2.2247 -12.3267,2.0966 -16.6088,2.6396 -0.9028,6.4578 -5.4033,31.041 -6.3062,37.4804 -0.9029,6.4394 -1.7987,12.8279 -2.6873,19.1652 -0.5016,3.5775 -1.3639,7.0016 -2.5868,10.2725 -1.2229,3.2709 -2.74,6.2351 -4.5512,8.8926 12.4414,6.4164 15.3178,10.0294 35.0397,12.357 16.654,1.9655 28.7139,0.2878 45.65,-2.3428 11.2156,-1.7421 30.881,-11.0461 40.6543,-22.1795 4.5977,-5.2375 15.9838,-20.2529 23.5169,-37.8498 7.5332,-17.5968 10.0699,-27.56 11.2715,-38.628 1.2016,-11.068 -1.7437,-13.7191 -4.0438,-16.7986 -4.5122,-5.6517 -6.0703,8.5039 -7.1255,4.6987 0.1142,-3.2892 0.6534,-8.8573 3.9382,-8.7216 2.5982,0.1073 5.2752,0.5445 5.4686,0.789 10.1637,12.8461 1.2231,40.2358 -6.1704,58.1442 -10.9102,26.4269 -26.6656,43.567 -29.0748,45.6365 -28.9922,24.9044 -83.8456,24.1667 -102.227,18.6956zm-25.2757 -12.7274c-0.2554,-0.1022 -0.5746,-0.23 -0.9577,-0.3833 -0.3831,-0.1533 -0.7923,-0.2811 -1.2275,-0.3833 -0.5864,-0.3067 -1.251,-0.5366 -1.9938,-0.6899 -0.7427,-0.1533 -1.5045,-0.3322 -2.285,-0.5367 -0.3596,0 -0.7382,-0.0256 -1.1356,-0.0766 -0.3975,-0.0512 -0.776,-0.0767 -1.1357,-0.0767 -1.2588,0 -1.8406,-0.041 -2.653,0.2891 -0.8124,0.3301 -1.404,1.0604 -1.7356,2.1464 -0.2317,0.7591 -0.6471,2.8624 -0.0449,4.4959 0.6463,1.7528 2.3622,1.8979 3.6618,2.1381 1.6612,0.3069 2.5129,0.1554 4.4739,-1.3268 1.9612,-1.482 3.6389,-3.3475 5.0331,-5.5962zm21.0221 -76.8095c-1.127,0.0634 -1.2681,0.0203 -2.6977,0.0895 -0.1492,0.8195 -0.255,2.1129 -0.3885,3.0651 -0.8454,6.0305 -5.9549,34.3791 -6.8077,40.4609 -0.8528,6.0817 -1.7091,12.189 -2.569,18.3218 -0.2724,1.9421 -0.6203,3.782 -1.0437,5.5196 -0.4235,1.7377 -0.9226,3.3731 -1.4972,4.9063 1.3943,-2.2487 2.5701,-4.7019 3.5271,-7.3594 0.957,-2.6576 1.3763,-6.0956 1.8321,-9.3561 0.8465,-6.0556 2.0116,-11.8027 2.9141,-18.2418 1.0059,-7.1755 6.7078,-32.068 6.7305,-37.4059z"/>
  </g>
  <g id="letras_x0020_amarillas_x0020_con_x0020_borde">
   <path id="_188451640" class="fil4 str2" d="M76.7404 144.039c0.9891,0.3384 1.1512,1.2511 0.8325,2.4816 -0.3498,1.3502 -2.0727,3.4184 -3.5308,2.9155 -0.8046,-0.2775 -1.1463,-1.3081 -0.8861,-2.3416 0.3343,-1.3277 2.1367,-3.5507 3.5844,-3.0555zm6.5471 18.7569l-0.3083 2.3594c-2.9344,1.7583 -5.8974,2.9876 -7.706,3.7446 -1.8087,0.7571 -3.2309,1.0044 -4.2756,0.7395 -1.4628,-0.3709 -2.3282,-1.4138 -2.6052,-3.131 -0.2548,-1.5802 0.8597,-11.2778 1.4453,-12.2413 2.5963,-4.2716 1.5096,-3.0358 3.5992,-2.5062 2.5835,0.6549 2.7068,2.3736 1.2686,3.8098 -0.2513,0.2508 -7.9794,12.7687 2.6327,9.5098 1.1715,-0.3597 3.4468,-1.195 5.9493,-2.2846zm18.5882 1.6216l-0.3758 2.5452c-3.1796,-0.0285 -5.7463,2.9676 -7.0884,3.9085 -1.342,0.941 -2.576,1.6546 -3.7007,2.1316 -1.1352,0.4853 -2.2021,0.6724 -3.2298,0.5681 -0.9997,-0.1016 -1.8843,-0.5917 -2.6339,-1.4782 -0.759,-0.8875 -1.3052,-2.0107 -1.6498,-3.3518 -0.5995,-2.344 -0.5622,-5.4221 0.8755,-7.4711 0.6421,-0.9263 1.8268,-2.0835 3.5544,-3.4715 2.0469,-1.6512 3.9208,-2.9004 5.6205,-3.7384 1.7007,-0.8474 3.0036,-1.2203 3.9193,-1.1273 0.654,0.0664 1.1915,0.3498 1.602,0.8586 0.4107,0.5089 0.5753,1.1167 0.504,1.8149 -0.0606,0.5944 -0.4453,1.4038 -1.1634,2.4273 -0.7095,1.0339 -1.4786,1.9091 -2.3171,2.6343 -0.8293,0.7261 -1.4594,1.0721 -1.8985,1.0275 -0.4765,-0.0484 -0.6841,-0.3269 -0.6311,-0.8459 0.0341,-0.1491 0.0579,-0.2896 0.0798,-0.4114 0.0228,-0.1311 0.0456,-0.2623 0.0581,-0.3849 0.0231,-0.2265 -0.0485,-0.3577 -0.1951,-0.4012 -0.1559,-0.0444 -0.3495,0.0027 -0.5817,0.1507 -1.9538,1.1077 -3.2982,1.8863 -4.0331,2.336 -0.7267,0.4601 -1.3132,0.9345 -1.7604,1.4325 -0.4464,0.4885 -0.7004,1.0347 -0.76,1.6197 -0.1117,1.0946 0.1444,2.0072 0.7655,2.7663 0.6314,0.7505 1.4937,1.1812 2.6056,1.2941 1.1492,0.1167 2.5771,-0.1863 4.285,-0.9186 1.7078,-0.7322 3.9834,-4.2912 8.1491,-3.915zm17.4687 0.3929l-0.5638 1.272c-0.9137,1.3786 -1.5196,2.4581 -2.2436,2.8388 -0.7209,0.379 -1.7699,0.5244 -3.1509,0.4578 -2.3031,2.873 -4.3693,4.3204 -6.18,4.3326 -1.032,0.0068 -1.9692,-0.3286 -2.8304,-1.0064 -0.8616,-0.6873 -1.56,-1.613 -2.0865,-2.7963 -0.5359,-1.1831 -0.822,-2.5103 -0.8582,-3.9722 -0.0292,-1.1865 0.3228,-2.5085 1.0659,-3.9566 0.7431,-1.448 1.723,-2.8028 2.9305,-4.064 1.1981,-1.2612 2.4961,-2.2763 3.8938,-3.0546 1.3882,-0.7784 2.6921,-1.1763 3.893,-1.1843 0.8632,-0.0058 1.542,0.1225 2.0458,0.385 0.504,0.272 0.7571,0.6405 0.769,1.1246 0.0092,0.3702 -0.1866,0.7988 -0.597,1.2857 0.6978,0.1377 1.1824,0.3813 1.4442,0.7214 0.2618,0.34 0.4086,0.9656 0.431,1.8769 0.022,0.8923 -0.1567,2.0138 -0.5362,3.3644 -0.3793,1.3602 -0.911,2.6264 -1.5947,3.8177l0.5096 0.4999 0.4129 -0.0028c0.3095,-0.0021 0.6186,-0.0856 0.9135,-0.2435 0.2977,-0.1594 0.5353,-1.0293 0.8865,-1.3845 0.1711,-0.1731 0.7011,-0.15 1.4456,-0.3116zm-5.8375 -7.2617c-1.4972,0.9309 -2.7709,1.7844 -3.8408,2.5416 -1.0604,0.7571 -1.9517,1.5226 -2.6926,2.2966 -0.7316,0.7738 -1.2099,1.5461 -1.4533,2.3263 -0.4086,2.0723 -0.6062,3.1939 -0.6019,3.3648 0.0302,1.2245 0.8895,1.8263 2.5783,1.8151 0.788,-0.0053 2.0847,-0.6975 3.9085,-2.0769 -0.3311,-0.8712 -0.5113,-1.7055 -0.5309,-2.5029 -0.0288,-1.1675 0.1765,-2.3555 0.6248,-3.5738 0.4485,-1.2182 1.118,-2.6088 2.0079,-4.1908zm4.6808 9.3706l-0.2889 -1.7973c0.7856,-1.2964 1.3678,-2.3855 1.7452,-3.2764 -0.6179,-0.135 -1.0749,-0.328 -1.3833,-0.5971 -0.3161,-0.2585 -0.517,-0.6847 -0.6108,-1.2681 -0.1074,-0.6681 0.0365,-1.5399 0.413,-2.6132 0.3843,-1.0837 0.8999,-2.1166 1.556,-3.0994 0.656,-0.983 1.2893,-1.6369 1.8966,-1.9805 0.2403,-0.1543 0.4711,-0.25 0.7125,-0.2798 0.3619,-0.0447 0.5748,0.1018 0.6322,0.4595 0.05,0.3105 -0.1364,0.9764 -0.5485,2.006 3.6454,-1.0542 5.9562,-1.6366 6.9401,-1.7579 0.3805,-0.0469 0.6464,-0.0414 0.8071,0.0156 0.332,0.1222 0.6446,0.4771 0.9471,1.0635 0.2931,0.5877 0.4921,1.1772 0.5904,1.7889 0.062,0.3857 -0.0385,0.8204 -0.3001,1.3133 -0.2615,0.4927 -0.7312,1.2225 -1.4089,2.1889 -0.7959,1.1729 -1.4111,2.41 -1.8721,3.7239 -0.4515,1.3128 -0.6268,2.2844 -0.5269,2.9055 0.1391,0.8656 0.7378,1.2332 1.7867,1.1039 1.1045,-0.1362 2.8428,-1.5117 5.2136,-4.136l0.2978 1.8537c-1.2573,1.777 -2.2985,3.1912 -3.1263,4.224 -0.8358,1.0435 -1.6196,1.8792 -2.3673,2.5279 -0.7492,0.6394 -1.4479,1.0038 -2.1069,1.0851 -0.7611,0.0939 -1.4497,-0.1858 -2.0737,-0.8286 -0.6239,-0.6428 -1.0393,-1.6375 -1.2541,-2.9737 -0.127,-0.7904 -0.068,-1.719 0.1693,-2.775 0.2357,-1.0655 0.6451,-2.2291 1.225,-3.5097 0.5798,-1.2807 1.2525,-2.5727 2.0288,-3.8679 -0.4924,0.1758 -1.0405,0.3585 -1.6612,0.5599 -0.6116,0.2001 -1.2602,0.4048 -1.9537,0.6248 -0.6858,0.2093 -1.2168,0.3803 -1.5852,0.5025 -0.7556,2.425 -2.0566,4.6967 -3.8935,6.8137zm19.5936 -4.1204l0.1999 0.6706c0.315,1.0566 0.8146,1.8221 1.5055,2.2856 0.6935,0.4726 1.4504,0.6049 2.2824,0.4039 0.8592,-0.2076 1.7034,-0.6281 2.5027,-1.2645 0.8083,-0.6384 1.5646,-1.4147 2.2773,-2.313 0.7179,-0.9047 3.122,-2.2794 4.1573,-4.8497l0.5075 2.4886c-2.3958,2.2884 -4.2085,5.6855 -5.5749,7.4067 -1.3613,1.715 -2.9376,2.7976 -4.7465,3.2346 -1.5646,0.378 -2.9962,0.064 -4.2884,-0.9535 -1.2831,-1.0195 -2.2483,-2.5984 -2.8919,-4.7573 -0.5613,-1.8833 -0.6366,-3.697 -0.2257,-5.4409 0.4018,-1.7418 1.3307,-3.6995 2.7867,-5.8732 0.9997,-1.4923 2.0664,-2.6954 3.2206,-3.6045 1.1425,-0.9162 2.2396,-1.4964 3.2795,-1.7477 0.8321,-0.201 1.5499,-0.1675 2.1443,0.1024 0.6033,0.268 1.02,0.7877 1.2501,1.5594 0.3369,1.13 0.2577,2.3605 -0.2403,3.6823 -0.4979,1.3218 -1.4327,2.7393 -2.8017,4.2616 -1.3807,1.5154 -3.1612,3.0881 -5.3444,4.7086zm-0.258 -1.8089c1.4027,-1.0184 2.5267,-2.1271 3.3806,-3.3281 0.8539,-1.2009 1.4176,-2.3022 1.7081,-3.2785 0.279,-0.9833 0.3642,-1.6736 0.2464,-2.0686 -0.1232,-0.4134 -0.3643,-0.5718 -0.7352,-0.4822 -0.3256,0.0786 -0.7808,0.4053 -1.3721,0.9913 -0.5913,0.586 -1.1533,1.3028 -1.6886,2.1413 -0.5354,0.8384 -0.9538,1.7766 -1.2733,2.8189 -0.3132,1.031 -0.4001,2.1057 -0.2659,3.2059zm13.1123 -1.8439l-0.3121 -0.6135c1.9397,-6.3995 3.2386,-10.8573 3.9135,-13.3806 -0.6947,-2.2369 -0.3487,-3.6439 1.042,-4.2333 0.3477,-0.1474 0.7735,-0.2019 1.2732,-0.172l0.3988 0.4191c0.0333,0.2275 0.1488,0.5357 0.3378,0.9072 0.1627,0.3197 0.5847,0.8655 1.2702,1.6253 0.6814,0.7721 1.2417,1.4274 1.6763,1.9575 0.426,0.5336 0.8368,1.1787 1.2149,1.9219 0.567,1.1145 0.8618,2.2815 0.8802,3.5131 0.0228,1.2403 -0.2013,2.5222 -0.6634,3.863 -0.4666,1.332 -1.1998,2.8087 -2.1955,4.4176 0.6463,-0.1479 1.1475,-0.2973 1.4953,-0.4447 0.6783,-0.2875 1.3283,-0.773 1.941,-1.4529 0.6043,-0.6763 1.1726,-1.4843 1.7007,-2.4119 0.5236,-0.9361 1.091,-2.0904 1.7146,-3.4785l0.8615 1.6934c-1.0474,3.0068 -2.1296,5.3982 -3.2548,7.1985 -1.1168,1.7967 -2.2814,2.9521 -3.4856,3.4625 -1.5603,0.6612 -3.3449,0.5983 -5.3536,-0.1888 -1.1933,-0.4815 -2.0723,-1.0543 -2.641,-1.706 -0.5646,-0.664 -1.1723,-1.6354 -1.814,-2.8969zm7.291 -7.7958l-2.3309 -3.5076c-0.4239,1.6187 -1.4556,4.8185 -3.1166,9.5978 1.1064,-0.1959 1.9343,-0.1897 2.4879,0.0273 0.5537,0.217 1.4359,0.7149 2.638,1.4972 0.8861,-0.9531 1.4258,-1.9592 1.6103,-3.0352 0.1845,-1.076 -0.0773,-2.32 -0.7982,-3.737 -0.0879,-0.1728 -0.1671,-0.3283 -0.2416,-0.4544 -0.0788,-0.1346 -0.1616,-0.257 -0.2489,-0.3881z"/>
   <path id="_188451352" class="fil4 str2" d="M167.024 128.262l-0.6094 0.7019c-1.214,-0.234 -2.1774,-0.4522 -2.893,-0.6589 -0.7155,-0.2069 -1.3285,-0.4614 -1.8358,-0.7676 -0.5132,-0.3071 -0.9158,-0.7102 -1.2194,-1.2198 -0.2953,-0.4956 -0.4378,-1.1047 -0.4191,-1.8213 0.0159,-0.7213 0.1709,-1.4467 0.4561,-2.1735 0.2883,-0.7304 0.6732,-1.3692 1.1551,-1.9242 0.4104,-0.4727 0.8604,-0.7645 1.3434,-0.86 0.4834,-0.1039 1.2118,-0.0602 2.1852,0.1307 1.1554,0.2236 2.1353,0.5398 2.9367,0.9523 0.8045,0.409 1.339,0.8399 1.6095,1.2939 0.1931,0.3243 0.284,0.6881 0.2669,1.0906 -0.0171,0.4024 -0.1436,0.7357 -0.3737,1.0007 -0.1958,0.2256 -0.5609,0.396 -1.0978,0.5068 -0.5372,0.1188 -1.0467,0.1435 -1.5345,0.0727 -0.485,-0.0662 -0.7926,-0.2041 -0.9222,-0.4218 -0.1408,-0.2363 -0.1258,-0.4488 0.0452,-0.6457 0.0552,-0.0481 0.1046,-0.0972 0.1478,-0.1391 0.0463,-0.0455 0.0926,-0.091 0.133,-0.1376 0.0746,-0.0859 0.0902,-0.1741 0.0554,-0.259 -0.0376,-0.0895 -0.1145,-0.1571 -0.234,-0.1992 -0.964,-0.4127 -1.6322,-0.6896 -2.0046,-0.8308 -0.3728,-0.1329 -0.7042,-0.1964 -0.9973,-0.1869 -0.2899,0.0059 -0.5344,0.1236 -0.7272,0.3456 -0.3606,0.4154 -0.5476,0.9198 -0.5704,1.5241 -0.0169,0.6052 0.136,1.1788 0.4644,1.7301 0.3394,0.5698 0.8939,1.087 1.6666,1.5482 0.7728,0.4612 1.7647,0.912 2.9731,1.3478zm5.2059 8.6251l-0.6094 0.7019c-0.7197,-0.1786 -1.2464,-0.3764 -1.586,-0.5944 -0.3364,-0.2217 -0.6921,-0.6868 -1.0729,-1.3964 -1.6339,-0.0941 -2.7215,-0.591 -3.254,-1.4851 -0.3035,-0.5094 -0.4648,-1.0969 -0.4893,-1.7718 -0.0213,-0.6783 0.0847,-1.3627 0.3271,-2.056 0.2396,-0.6977 0.6003,-1.324 1.0791,-1.8756 0.3886,-0.4476 0.9339,-0.7555 1.6355,-0.9153 0.7016,-0.1599 1.441,-0.1681 2.2156,-0.0293 0.7719,0.1341 1.4905,0.4077 2.159,0.8171 0.6657,0.4048 1.1795,0.9065 1.5327,1.4993 0.2538,0.4262 0.409,0.8099 0.4682,1.1557 0.0561,0.3494 0.0065,0.6095 -0.1521,0.7921 -0.1212,0.1397 -0.3218,0.1989 -0.6044,0.1731 0.1575,0.3965 0.2174,0.7259 0.1799,0.9799 -0.0374,0.254 -0.2039,0.5552 -0.5023,0.899 -0.2923,0.3366 -0.7198,0.6572 -1.2828,0.9619 -0.5659,0.3082 -1.145,0.5066 -1.7433,0.6022l-0.0186 0.4354 0.1214 0.2038c0.0911,0.1528 0.2101,0.2735 0.3482,0.3644 0.1411,0.0873 0.274,0.1608 0.402,0.2086 0.1278,0.056 0.4101,0.1603 0.8464,0.3295zm0.7269 -5.5472c-0.7486,-0.403 -1.4061,-0.7235 -1.9718,-0.978 -0.5629,-0.2498 -1.0793,-0.4127 -1.5546,-0.4978 -0.4726,-0.0805 -0.8707,-0.036 -1.2028,0.128 -0.813,0.5536 -1.2461,0.8651 -1.3021,0.9295 -0.401,0.462 -0.3516,1.108 0.1451,1.9419 0.2317,0.3891 0.8419,0.7798 1.8359,1.1814 0.195,-0.4824 0.4217,-0.8763 0.6828,-1.1771 0.3824,-0.4405 0.84,-0.7723 1.3787,-0.9945 0.5386,-0.2221 1.1995,-0.3975 1.9888,-0.5334zm6.3381 12.7965c-2.1399,-0.2221 -3.4447,-0.0626 -3.911,0.4745 -0.2612,0.3008 -0.2979,0.6087 -0.1075,0.9284 0.1545,0.2593 0.452,0.4947 0.8896,0.7014 0.4346,0.2102 1.1559,0.4884 2.1611,0.8381l-0.625 0.7199c-1.6162,-0.302 -2.8195,-0.5796 -3.6041,-0.8319 -0.7872,-0.2569 -1.3108,-0.5989 -1.5701,-1.0344 -0.4415,-0.7412 -0.3327,-1.4914 0.3232,-2.247 0.1928,-0.222 0.4132,-0.3977 0.6521,-0.5245 0.2448,-0.1259 0.5152,-0.2264 0.811,-0.3017 0.2991,-0.0788 0.7317,-0.171 1.3069,-0.279 0.5756,-0.1162 1.2281,-0.2352 1.9608,-0.3604 -0.4835,-0.3101 -1.2181,-0.5575 -2.2008,-0.7378 -0.6331,-0.1299 -1.1979,-0.198 -1.7057,-0.2144 -0.505,-0.0119 -1.055,-0.0111 -1.6557,0.0012 -0.6037,0.016 -1.0229,-0.0011 -1.2576,-0.0431 -0.2347,-0.0421 -0.4073,-0.1558 -0.5204,-0.3457 -0.1739,-0.2918 -0.1291,-0.7886 0.1319,-1.5032 0.2611,-0.7147 0.665,-1.3831 1.206,-2.0061 0.3327,-0.3832 0.6269,-0.6284 0.8855,-0.7311 0.2528,-0.1037 0.6526,-0.1893 1.2022,-0.2522 1.0133,-0.1206 1.8088,-0.1229 2.3779,-0.0209 0.5689,0.1101 0.9807,0.3701 1.2262,0.7824 0.1739,0.2918 0.2776,0.5628 0.3172,0.814 0.0364,0.2548 -0.0137,0.461 -0.1536,0.6221 -0.0622,0.0717 -0.1382,0.1202 -0.2397,0.1433 -0.1015,0.0233 -0.1964,0.0311 -0.2938,0.0261 -0.0915,-0.004 -0.2858,-0.0223 -0.5709,-0.0609 -1.9132,-0.2021 -3.0283,-0.1204 -3.3423,0.2413 -0.1772,0.2041 -0.2119,0.3924 -0.1097,0.5637 0.0634,0.1066 0.3057,0.179 0.7265,0.2253 0.4181,0.0419 0.9659,0.0904 1.6378,0.1444 0.6744,0.0588 1.417,0.1877 2.2305,0.3831 0.8164,0.2001 1.6696,0.5059 2.5625,0.9225 0.514,0.2204 0.8631,0.4898 1.0508,0.8048 0.0883,0.1483 0.0374,0.4412 -0.1444,0.8928 -0.1846,0.447 -0.4137,0.8279 -0.6904,1.1467 -0.1337,0.1539 -0.4517,0.1922 -0.957,0.1183z"/>
   <path id="_188451856" class="fil4 str2" d="M207.076 156.712c-1.0503,1.4007 -1.8476,2.3822 -2.3849,2.9421 -0.5408,0.5634 -0.968,0.7926 -1.2885,0.6901 -0.2524,-0.0807 -0.4772,-0.2961 -0.6781,-0.6429 -0.1974,-0.3502 -0.3455,-0.7819 -0.4376,-1.2976 -0.0923,-0.5111 -0.1248,-1.0401 -0.0977,-1.5826 0.0177,-0.3555 0.0578,-0.6715 0.123,-0.9377 0.0655,-0.2708 0.1733,-0.5559 0.3301,-0.853 0.1569,-0.2972 0.3631,-0.6109 0.6116,-0.9391 0.2484,-0.3281 0.554,-0.6887 0.9102,-1.0935 0.2167,-0.2456 0.3969,-0.4566 0.544,-0.6271 0.1471,-0.1707 0.2872,-0.2695 0.4206,-0.3055 0.1334,-0.036 0.3467,-0.0049 0.64,0.0888 0.2148,0.0687 0.4141,0.1696 0.6046,0.3092 0.1908,0.1351 0.2821,0.2476 0.2782,0.3251 -0.0079,0.1596 -0.1213,0.4197 -0.3366,0.7768 -0.2185,0.3516 -0.5611,0.7607 -1.0276,1.2227 -0.4664,0.4622 -0.9971,0.8899 -1.5989,1.2856 -0.1525,0.4883 -0.2371,0.8642 -0.2509,1.1423 -0.0191,0.3828 0.0804,0.6091 0.3021,0.68 0.0784,0.0251 0.2159,-0.0235 0.4125,-0.1459 0.1933,-0.1235 0.528,-0.373 0.9972,-0.7509 0.4658,-0.3789 0.8877,-0.7117 1.259,-1.0005 0.2775,-0.2169 0.6001,-0.5721 0.9746,-1.0637 0.371,-0.4926 0.6731,-0.8545 0.8996,-1.0877 0.5289,-0.5347 0.889,-0.878 1.0768,-1.0309 0.1912,-0.1519 0.3704,-0.2011 0.5374,-0.1477 0.157,0.0501 0.2626,0.1534 0.314,0.3041 0.0479,0.1496 0.065,0.4329 0.0448,0.8385 -0.0093,0.1869 -0.0307,0.3376 -0.0637,0.4428 -0.033,0.1052 -0.095,0.2381 -0.186,0.3943 -0.0943,0.1551 -0.2783,0.439 -0.5549,0.8461 -0.2801,0.4058 -0.6056,0.8899 -0.9866,1.4441 -0.2056,0.3001 -0.3852,0.6364 -0.5461,1.0155 -0.1608,0.3747 -0.2483,0.6708 -0.259,0.885 -0.0229,0.4604 0.1018,0.7364 0.3746,0.8237 0.2285,0.0731 0.4972,0.034 0.8098,-0.1208 0.3092,-0.1558 0.7918,-0.4553 1.4449,-0.9086l-0.0448 0.8979c-0.8288,0.712 -1.4399,1.2251 -1.8334,1.5439 -0.3936,0.3187 -0.7339,0.5432 -1.0178,0.6794 -0.2839,0.1361 -0.5488,0.1672 -0.7977,0.0876 -0.5592,-0.1788 -0.8166,-0.7149 -0.772,-1.6083 0.0168,-0.3373 0.1214,-0.7669 0.3171,-1.2878 0.1958,-0.5209 0.5068,-1.2689 0.9361,-2.2338zm4.6977 2.9146l-0.0166 0.3327c-0.0262,0.5242 0.0488,0.9649 0.2286,1.3188 0.1796,0.3584 0.4247,0.585 0.7384,0.6853 0.3239,0.1036 0.6699,0.1124 1.028,0.0184 0.3614,-0.0928 0.7229,-0.255 1.0842,-0.4822 0.3646,-0.2261 0.8102,-0.5466 1.3365,-0.9572l-0.0408 0.8159c-0.8104,0.968 -1.5626,1.6721 -2.2563,2.1032 -0.6902,0.4323 -1.3747,0.5422 -2.0567,0.3241 -0.5899,-0.1886 -1.0452,-0.6444 -1.3623,-1.371 -0.3138,-0.7255 -0.4458,-1.6197 -0.3924,-2.6909 0.0467,-0.9344 0.2527,-1.7299 0.618,-2.3864 0.3619,-0.6576 0.9339,-1.2898 1.716,-1.8964 0.5369,-0.4164 1.06,-0.6937 1.5758,-0.8251 0.5127,-0.1371 0.9667,-0.14 1.3588,-0.0147 0.3137,0.1004 0.5579,0.2757 0.729,0.5249 0.1747,0.2503 0.2524,0.5669 0.2332,0.9498 -0.0279,0.5606 -0.2128,1.0711 -0.5542,1.5269 -0.3415,0.4557 -0.8464,0.8546 -1.515,1.2012 -0.6718,0.3407 -1.4892,0.6165 -2.4522,0.8227zm0.1421 -0.8345c0.6158,-0.1225 1.1466,-0.3464 1.5959,-0.6705 0.4491,-0.3241 0.7852,-0.6704 1.0107,-1.0243 0.2223,-0.3596 0.3401,-0.6368 0.3499,-0.8328 0.0102,-0.2051 -0.053,-0.3273 -0.1928,-0.372 -0.1227,-0.0392 -0.3221,-0.001 -0.6017,0.1179 -0.2796,0.119 -0.5659,0.3007 -0.8584,0.5405 -0.2927,0.2398 -0.5575,0.5488 -0.8014,0.9246 -0.2403,0.3723 -0.4079,0.8143 -0.5022,1.3166zm11.1122 1.488c-1.2602,1.3706 -1.9074,2.4001 -1.9415,3.0838 -0.0191,0.3829 0.0873,0.6114 0.3226,0.6866 0.1909,0.0611 0.4501,0.0051 0.7741,-0.1691 0.3237,-0.1698 0.832,-0.4981 1.5247,-0.9805l-0.0457 0.9161c-1.0069,0.9469 -1.7783,1.6172 -2.3105,2.0073 -0.5356,0.3891 -0.962,0.5352 -1.2826,0.4327 -0.5456,-0.1744 -0.7943,-0.7449 -0.7463,-1.7066 0.0141,-0.2826 0.0623,-0.5543 0.1407,-0.807 0.0821,-0.2563 0.1885,-0.514 0.3192,-0.7732 0.131,-0.2638 0.3294,-0.6309 0.5994,-1.1096 0.2666,-0.4843 0.5742,-1.025 0.9229,-1.6267 -0.3914,0.1388 -0.8943,0.4967 -1.5052,1.0747 -0.3992,0.3632 -0.7356,0.7187 -1.0198,1.0678 -0.2808,0.3501 -0.5809,0.7404 -0.9039,1.1743 -0.3233,0.4383 -0.5593,0.7241 -0.7047,0.8628 -0.1455,0.1387 -0.2865,0.1863 -0.4263,0.1416 -0.2148,-0.0687 -0.3944,-0.4271 -0.5453,-1.0821 -0.151,-0.6548 -0.2049,-1.3805 -0.1653,-2.1737 0.0244,-0.4877 0.0844,-0.8575 0.1835,-1.1082 0.0955,-0.2474 0.2787,-0.587 0.5531,-1.0179 0.5041,-0.7975 0.9376,-1.3627 1.2904,-1.699 0.356,-0.3308 0.6877,-0.4516 0.9912,-0.3547 0.2149,0.0688 0.3828,0.1735 0.5076,0.3106 0.1246,0.1417 0.1819,0.3129 0.1717,0.518 -0.0046,0.0911 -0.0263,0.1769 -0.0722,0.264 -0.0459,0.0872 -0.0944,0.1597 -0.1497,0.2253 -0.0516,0.0623 -0.1653,0.188 -0.3369,0.3646 -1.1281,1.2231 -1.7038,2.0671 -1.7267,2.5274 -0.0129,0.2598 0.0455,0.4082 0.1716,0.4486 0.0784,0.025 0.2406,-0.0991 0.4895,-0.3669 0.2455,-0.2687 0.5647,-0.6251 0.9539,-1.0657 0.3926,-0.4394 0.8511,-0.8809 1.3759,-1.3289 0.5281,-0.4471 1.1198,-0.8506 1.7786,-1.2096 0.3712,-0.2193 0.6727,-0.2896 0.9046,-0.2155 0.1091,0.0349 0.2016,0.2636 0.2877,0.6894 0.0828,0.4247 0.1141,0.8377 0.0939,1.2434 -0.0097,0.1959 -0.1678,0.4464 -0.4742,0.7559zm5.1771 4.1376c-0.6308,0.7013 -1.1903,1.2911 -1.6852,1.7672 -0.4949,0.4763 -0.8932,0.8212 -1.1983,1.0339 -0.3051,0.2127 -0.5106,0.3044 -0.6163,0.2706 -0.1739,-0.0556 -0.359,-0.3046 -0.5552,-0.7471 -0.1995,-0.4435 -0.36,-0.9764 -0.4846,-1.6044 -0.1246,-0.6279 -0.1702,-1.2399 -0.1404,-1.837 0.043,-0.8614 0.4001,-1.6318 1.0712,-2.3063 0.6677,-0.6756 1.4168,-1.177 2.247,-1.4997 0.8268,-0.3236 1.4413,-0.4189 1.8403,-0.2913 0.3273,0.1047 0.6342,0.4806 0.9207,1.1279 0.5829,-1.2677 1.1339,-2.3834 1.6532,-3.3473 0.5192,-0.9639 0.9491,-1.6646 1.2865,-2.1077 0.3408,-0.4422 0.5795,-0.6437 0.7125,-0.6011 0.1466,0.0468 0.2748,0.185 0.3881,0.4157 0.1132,0.2307 0.1673,0.4657 0.1552,0.7073 -0.0232,0.4649 -0.3186,1.1762 -0.8794,2.1407 -0.5643,0.9634 -1.1167,1.8981 -1.6645,2.8112 -0.5443,0.9096 -1.0197,1.8272 -1.426,2.7485 -0.4031,0.927 -0.6282,1.8274 -0.6721,2.7071 -0.04,0.8023 0.1344,1.2656 0.5197,1.3888 0.2319,0.0741 0.534,-0.0098 0.9061,-0.2475 0.3688,-0.2386 0.9028,-0.6653 1.5955,-1.2866l-0.0487 0.9754c-1.5629,2.0241 -2.733,2.9095 -3.5139,2.6597 -0.3171,-0.1013 -0.5343,-0.3328 -0.6547,-0.6954 -0.1237,-0.3684 -0.1682,-0.8642 -0.1366,-1.4979 0.0426,-0.8522 0.1703,-1.7469 0.3799,-2.6847zm0.9061 -3.0213c-0.6068,0.0792 -1.3238,0.2852 -2.1513,0.6227 -0.8309,0.3362 -1.332,0.5882 -1.5102,0.7581 -0.1555,0.1309 -0.3017,0.4221 -0.4388,0.8784 -0.1369,0.4517 -0.2132,0.8024 -0.2257,1.0531 -0.0075,0.1504 0.0204,0.2844 0.0802,0.4054 0.0634,0.1175 0.1428,0.1939 0.2416,0.2254 0.0955,0.0306 0.204,0.0097 0.3286,-0.057 0.1248,-0.0712 0.3262,-0.2199 0.6042,-0.4458 0.2781,-0.226 0.4585,-0.372 0.5449,-0.437 0.1191,-0.0962 0.3858,-0.3028 0.7967,-0.6206 0.4139,-0.3121 0.7142,-0.568 0.9074,-0.761 0.1931,-0.1883 0.3604,-0.4172 0.502,-0.6868 0.1414,-0.2651 0.2505,-0.5775 0.3204,-0.9349zm4.6806 4.4372l-0.0166 0.3328c-0.0262,0.5241 0.0489,0.9649 0.2287,1.3188 0.1796,0.3584 0.4246,0.5849 0.7384,0.6852 0.3239,0.1037 0.6699,0.1125 1.0279,0.0185 0.3615,-0.0928 0.7229,-0.255 1.0843,-0.4822 0.3646,-0.2261 0.8101,-0.5467 1.3364,-0.9572l-0.0407 0.8158c-0.8104,0.9681 -1.5627,1.6722 -2.2563,2.1033 -0.6902,0.4323 -1.3747,0.5422 -2.0567,0.3241 -0.5899,-0.1887 -1.0452,-0.6445 -1.3624,-1.3711 -0.3137,-0.7254 -0.4458,-1.6197 -0.3923,-2.6908 0.0466,-0.9344 0.2526,-1.7299 0.618,-2.3864 0.3618,-0.6577 0.9339,-1.2898 1.7159,-1.8964 0.537,-0.4164 1.0601,-0.6937 1.5759,-0.8251 0.5126,-0.1371 0.9666,-0.1401 1.3588,-0.0147 0.3137,0.1003 0.5578,0.2756 0.729,0.5248 0.1746,0.2504 0.2523,0.5669 0.2332,0.9498 -0.0279,0.5606 -0.2128,1.0712 -0.5543,1.5269 -0.3414,0.4558 -0.8463,0.8547 -1.5149,1.2012 -0.6718,0.3408 -1.4893,0.6166 -2.4523,0.8227zm0.1421 -0.8344c0.6159,-0.1226 1.1467,-0.3465 1.5959,-0.6706 0.4492,-0.324 0.7853,-0.6703 1.0107,-1.0243 0.2224,-0.3595 0.3402,-0.6368 0.35,-0.8328 0.0102,-0.2051 -0.053,-0.3272 -0.1928,-0.3719 -0.1227,-0.0393 -0.3221,-0.0011 -0.6018,0.1178 -0.2796,0.119 -0.5658,0.3007 -0.8583,0.5406 -0.2927,0.2398 -0.5575,0.5487 -0.8015,0.9246 -0.2403,0.3723 -0.4078,0.8142 -0.5022,1.3166z"/>
   <path id="_188597936" class="fil4 str2" d="M198.655 135.414c-0.0351,0.1052 0.0114,0.1619 0.1372,0.1619 0.0906,0 0.5206,-0.0971 1.2921,-0.2833 0.7716,-0.1862 1.4509,-0.2915 2.035,-0.3077 -0.7386,0.2834 -1.3943,0.5748 -1.9595,0.8662 -0.5651,0.2914 -1.1511,0.6153 -1.768,0.9715 -0.6169,0.3562 -1.0474,0.5909 -1.3042,0.7124 -0.2569,0.1214 -0.462,0.178 -0.623,0.178 -0.4982,0 -0.5771,-0.5181 -0.229,-1.5623 0.8957,-2.6877 1.947,-4.5739 3.1567,-5.6668 0.488,-0.4372 1.2168,-0.9633 2.1841,-1.5705 0.9622,-0.6071 2.0143,-1.1819 3.1539,-1.7324 1.1419,-0.5424 2.3501,-1.0119 3.6347,-1.4086 1.2846,-0.3967 2.4816,-0.591 3.6038,-0.591 1.1473,0 2.1151,0.2671 2.9005,0.8095 0.783,0.5343 1.3423,1.2873 1.6677,2.2587 0.3254,0.9714 0.4269,2.1614 0.3047,3.57 -0.1222,1.4086 -0.4723,2.9873 -1.0578,4.744 -0.8903,2.6714 -2.2318,5.2619 -4.0321,7.7796 -1.7925,2.5096 -3.81,4.7277 -6.0496,6.6463 -2.2347,1.9186 -4.5485,3.4406 -6.9265,4.5658 -2.3828,1.1253 -4.5467,1.6838 -6.4941,1.6838 -0.3623,0 -0.6275,-0.0647 -0.7985,-0.1861 -0.1682,-0.1296 -0.2355,-0.3805 -0.2019,-0.7529 0.0358,-0.3643 0.1741,-0.9148 0.4169,-1.6434 0.2995,-0.8985 0.5902,-1.6352 0.8646,-2.2019 0.2796,-0.5667 0.644,-1.2224 1.0985,-1.9672 3.1001,-5.0434 7.6761,-11.3902 13.7411,-19.0484 -0.7527,0.1295 -1.606,0.3642 -2.57,0.7204 -0.9591,0.3562 -1.8888,0.7448 -2.7917,1.1739 -0.8951,0.4209 -1.6718,0.8338 -2.3196,1.2224 -0.6506,0.3966 -1.0067,0.68 -1.066,0.8581zm9.2209 -4.1125c-0.0081,0.0243 -0.0473,0.2024 -0.1201,0.5263 -0.0703,0.3318 -0.1419,0.6071 -0.2202,0.8419 -0.1214,0.3642 -0.4071,0.8742 -0.8571,1.53 -0.4528,0.6638 -1.2942,1.8295 -2.5321,3.5053 -1.2378,1.6758 -2.3076,3.1491 -3.2065,4.412 -0.904,1.2628 -2.015,2.89 -3.338,4.8815 -0.4194,0.6395 -0.7006,1.0605 -0.8567,1.2872 -0.1534,0.2186 -0.4006,0.5828 -0.7417,1.0928 -0.3383,0.502 -0.6099,0.9391 -0.8118,1.3034 -0.1969,0.3643 -0.3289,0.6396 -0.3909,0.8257 -0.1376,0.4129 -0.0938,0.7043 0.1289,0.8662 0.2252,0.17 0.6008,0.251 1.1191,0.251 1.3385,0 2.8821,-0.3886 4.6384,-1.1738 1.7563,-0.7853 3.5218,-1.8701 5.2943,-3.2625 1.7775,-1.3924 3.3476,-2.9629 4.7231,-4.7196 1.3706,-1.7567 2.3755,-3.5944 3.0123,-5.5049 0.7285,-2.1857 0.7888,-3.8614 0.1915,-5.0434 -0.6002,-1.1738 -1.8475,-1.7648 -3.7446,-1.7648 -0.7951,0 -1.5611,0.0486 -2.2879,0.1457z"/>
  </g>
  <g id="Vestido_x0020_bordo">
   <path id="_188597432" class="fil5 str3" d="M157.617 124.352c27.6749,62.0336 95.7445,47.8086 108.337,40.6935 -16.5078,17.0645 -94.2202,17.1193 -108.337,-40.6935z"/>
   <path id="_188596952" class="fil5 str3" d="M210.332 59.5846c0.558,-2.7479 13.4304,6.0442 12.7506,22.5591 -0.6757,16.4187 0.185,30.2759 4.0233,41.9574 9.5846,29.1693 31.2515,44.1334 38.8674,46.111 -15.6204,3.306 -35.5212,-13.8271 -42.9955,-44.0979 -2.6749,-10.8338 -3.5291,-28.1685 -2.8805,-39.1372 0.9865,-16.6833 -2.8192,-15.7978 -9.7653,-27.3924z"/>
  </g>
 </g>
</svg>
